<svg width="444" height="358" viewBox="0 0 444 358" fill="none" xmlns="http://www.w3.org/2000/svg">
<path d="M406.039 214.079C407.978 218.472 410.186 222.507 409.218 227.412C412.275 222.464 407.773 217.298 409.979 212.294C408.989 212.115 407.977 212.016 406.986 211.836C404.218 208.599 402.376 204.49 398.784 202.064C399.414 200.683 400.044 199.303 400.593 197.9C397.82 197.588 396.624 194.943 395.278 192.861C390.34 189.644 387.136 184.482 381.929 181.623C381.735 182.346 381.348 183.792 381.154 184.515C381.821 182.025 381.277 179.211 378.407 178.614C378.666 177.65 379.182 175.723 379.44 174.759C379.548 175.649 379.785 177.348 379.893 178.237C380.911 177.994 381.848 177.728 382.865 177.484C382.531 178.084 381.864 179.282 381.552 179.801C382.682 180.104 384.562 181.812 384.464 178.946C387.108 181.031 389.079 184.658 392.853 184.465C392.385 184.597 391.529 184.884 391.061 185.017C392.014 186.305 392.967 187.594 393.613 189.058C393.899 188.962 394.367 188.83 394.631 188.814C398.034 191.62 401.319 195.513 405.852 196.039C405.351 194.355 404.829 192.752 404.408 191.09C404.042 191.164 403.369 191.414 402.982 191.568C396.951 185.649 392.228 177.755 384.625 173.824C384.948 172.62 385.27 171.415 385.593 170.21C384.829 171.124 384.086 171.958 383.322 172.873C383.268 172.428 383.181 171.458 383.047 170.991C381.017 169.845 377.603 169.016 378.34 165.943C377.425 166.128 376.591 166.335 375.654 166.6C375.438 166.112 374.948 165.034 374.652 164.524C374.286 164.598 373.656 164.688 373.29 164.762C372.789 163.078 371.448 161.944 370.086 160.89C369.58 160.841 368.508 160.64 367.922 160.569C368.368 159.225 368.104 157.949 366.656 157.217L365.773 159.218C364.362 156.086 361.347 154.417 358.681 152.412C358.31 152.829 357.669 153.604 357.319 153.941C357.206 153.394 357.082 152.241 356.991 151.614C352.129 150.053 347.692 147.229 344.057 143.673C342.609 142.94 340.73 142.523 340.579 140.503C340.013 140.351 338.78 140.107 338.215 139.956C338.323 139.554 338.597 138.853 338.705 138.451C334.834 138.361 332.001 135.364 328.91 133.331C329.314 132.148 329.615 131.023 328.964 129.902C328.409 130.356 327.322 131.183 326.708 131.535C326.735 131.112 326.708 130.244 326.713 129.901C324.753 129.462 322.67 129.162 321.216 127.482C318.981 125.161 315.379 124.713 313.844 121.719C311.83 120.835 309.634 119.988 307.975 118.425C308.976 117.918 310.08 117.353 311.081 116.847C309.821 117.026 308.54 117.285 307.28 117.464C308.54 114.703 304.884 113.809 303.382 112.632C301.319 110.96 298.477 112.523 296.35 111.092C294.126 109.377 290.782 107.965 291.444 104.527C291.035 104.762 290.114 105.29 289.684 105.605C288.731 104.316 287.153 104.066 285.64 103.574C282.199 101.878 278.931 99.5385 275.926 97.184C275.48 97.2365 274.484 97.4 274.037 97.4524C273.891 96.3805 273.746 95.3085 273.578 94.3169C271.925 93.7019 270.273 93.0868 268.62 92.4717C268.356 91.1959 268.011 89.8984 267.585 88.5793C267.677 90.4976 267.893 92.277 268.087 94.1366C266.504 92.9377 264.942 91.6586 263.3 90.3577C263.268 89.8326 263.143 88.6803 263.111 88.1552C262.465 87.9821 261.07 87.6945 260.424 87.5214C259.929 85.4949 258.141 83.1221 255.815 84.0483C254.997 83.2265 254.028 82.9668 252.848 83.1674C252.714 82.7009 252.385 81.666 252.17 81.1779C251.131 81.502 250.032 81.7242 248.993 82.0483C249.128 81.2236 249.338 79.4721 249.472 78.6474C248.853 79.3423 248.212 80.1175 247.572 80.8927C245.429 79.1995 243.248 77.324 242.009 74.8401L242.155 77.2033C240.389 76.0414 238.644 74.7993 237.599 72.8838C237.427 73.5263 237.255 74.1688 237.083 74.8113C237.379 75.3211 237.891 76.3189 238.187 76.8287C234.273 75.6077 231.451 73.2162 229.685 69.4719C229.55 70.2967 229.384 71.8875 229.249 72.7122C228.447 72.1529 227.564 71.572 226.761 71.0127C226.826 69.4806 226.809 67.9268 226.691 66.4317C226.384 67.8989 226.099 69.2858 225.792 70.7531C222.502 68.4943 218.222 67.3474 216.375 63.5814C213.748 65.632 211.481 62.7865 209.085 61.7141C208.993 61.087 208.971 59.8761 208.879 59.249C207.76 59.5515 206.699 59.956 205.579 60.2585C203.609 59.214 201.616 58.2498 199.646 57.2053C199.522 56.053 199.317 54.8791 199.112 53.7053C198.999 54.4497 198.752 56.0189 198.617 56.8436C194.886 54.2944 190.013 53.4192 187.008 49.7735C185.776 49.5292 184.564 49.2046 183.31 49.0406C183.159 48.3116 182.938 46.8751 182.868 46.1677C182.254 46.5197 181.129 47.1651 180.537 47.4368C180.321 46.9487 179.89 45.9725 179.756 45.506C179.212 45.2742 178.065 44.7087 177.543 44.3966C177.489 43.9518 177.542 43.1054 177.488 42.6605C173.693 42.9347 169.94 41.757 166.327 40.7029C165.686 38.8956 164.329 37.4991 163.053 36.1242C161.734 36.2012 160.356 36.1762 158.956 36.2315C158.584 35.3572 158.191 34.5632 157.739 33.6673C155.908 34.0376 154.046 33.8828 152.204 33.6476C152.253 33.1441 152.247 32.1958 152.215 31.6707L150.82 30.0919C150.486 30.6911 149.84 31.8092 149.507 32.4084C149.598 31.7443 149.722 30.314 149.732 29.6283C149.199 30.0019 148.031 30.808 147.396 31.2403C146.621 30.2578 145.969 29.1363 145.113 28.1322C145.221 29.0219 144.672 30.4242 144.419 31.0451C144.381 30.8628 144.246 30.3963 144.23 30.1338C145.931 27.6629 142.921 26.9425 140.94 27.875C141.134 27.1522 141.521 25.7066 141.736 24.9035C141.053 25.8393 140.369 26.7752 139.766 27.7326L138.555 27.408C138.576 26.0365 138.576 24.7453 138.495 23.4324C137.543 27.309 134.796 23.9908 132.702 23.0852C132.648 22.6404 132.416 21.8897 132.26 21.5036C132.007 22.1244 131.48 23.4464 131.205 24.1476C130.909 23.6378 130.398 22.64 130.161 22.2321C129.676 22.1023 128.626 21.821 128.163 21.6108C128.05 21.0641 127.883 20.0724 127.77 19.5256C123.597 19.2684 119.834 17.4852 115.876 16.4249C116.027 15.8627 116.307 14.8187 116.457 14.2565C115.467 15.3683 114.514 16.6625 113.163 17.5055C111.322 17.2703 111.369 14.1844 109.378 14.5114C107.31 14.4739 105.286 14.2758 103.186 13.7132C103.816 12.3325 104.284 10.9085 104.65 9.54324C103.961 10.822 103.374 12.042 102.766 13.3424C101.781 12.8201 100.876 12.3195 99.8477 11.9579L99.3793 12.0906C98.1086 11.6641 96.6927 11.4568 95.8795 10.2921C90.7216 9.51257 85.8488 7.34614 80.6479 6.72726C80.7178 6.14344 80.9598 4.91714 81.0297 4.33332C79.3178 4.90753 75.0759 7.81655 75.7858 3.87506C73.8802 5.17207 71.6191 5.85737 69.358 6.54268C69.4494 5.87855 69.6322 4.5503 69.7236 3.88617C69.5621 3.84289 69.1152 3.89531 68.9537 3.85203C68.9 4.69842 68.7871 5.44286 68.6527 6.26761C68.3243 6.52393 67.5061 6.9933 67.0754 7.30829C62.8868 34.247 58.5529 61.4051 53.4329 88.2664C53.9876 89.1037 54.623 89.9626 55.1777 90.7998L53.6379 90.7315C53.4982 91.8992 53.2777 93.0451 53.0572 94.1911C69.7819 107.366 90.441 113.935 109.103 123.756C140.494 139.053 170.776 156.549 199.481 176.378L199.405 174.722C199.998 175.741 200.612 176.681 201.204 177.7C200.768 178.358 199.816 179.652 199.299 180.288C199.062 179.881 198.69 179.006 198.534 178.62C195.078 177.952 192.111 175.78 188.573 175.09C188.412 173.756 187.76 172.634 186.699 171.748C186.489 172.208 186.129 173.23 186 173.712C184.002 173.091 182.521 171.833 181.229 170.196C180.997 170.736 180.454 171.796 180.222 172.336C176.222 170.145 172.243 167.874 167.968 166.384C168.258 165.946 168.759 165.047 169.028 164.689C167.763 165.21 166.476 165.813 165.13 166.313C165.346 165.51 165.797 163.823 166.013 163.02C165.437 163.554 164.387 164.564 163.811 165.098C163.439 164.224 162.615 162.454 162.244 161.58C161.824 162.5 161.506 163.362 160.984 164.341C158.395 162.7 155.638 161.359 153.172 159.579C152.698 160.055 151.691 160.904 151.158 161.278C146.393 158.71 141.397 156.682 136.378 154.735L136.475 153.728C133.859 155.093 131.124 153.671 128.437 153.038C128.243 152.469 127.914 151.434 127.721 150.866C113.55 150.77 99.7717 143.721 85.3589 142.27C85.0523 143.737 84.7458 145.204 84.4392 146.671C85.3491 146.829 87.1689 147.145 88.0788 147.302C88.1436 148.353 88.1869 149.483 88.1709 150.512C87.3633 150.295 85.6888 149.761 84.8812 149.544C84.9888 149.143 85.2255 148.259 85.3546 147.777C82.2971 150.143 78.1998 148.959 74.668 149.218L73.8123 150.796C74.6415 150.932 76.219 151.183 77.0481 151.319C76.0521 151.482 75.0346 151.726 74.0387 151.89C73.807 151.139 73.4245 149.659 73.1928 148.909C71.3571 149.622 69.5213 150.335 67.6856 151.048C65.4405 150.705 63.1146 150.34 60.9125 149.836C59.136 150.651 57.2572 151.525 55.5185 152.522C53.8817 152.17 52.1857 151.715 50.4682 151.341C49.3269 151.724 48.1856 152.107 46.942 152.548C48.1051 153.376 49.2897 154.124 50.4528 154.952C52.267 154.319 54.1027 153.606 55.917 152.973C55.9278 153.579 56.0519 154.731 56.0628 155.336C54.1893 155.867 51.8796 155.765 50.6741 157.68C54.6473 157.712 64.0468 154.291 64.0266 160.827C61.3399 160.194 58.551 159.618 55.762 159.043C55.2668 159.599 54.2387 160.529 53.6627 161.063C54.4103 157.304 51.3852 160.195 50.1685 160.213C50.1199 159.425 50.1034 157.871 50.0333 157.164C48.612 157.3 47.2499 157.537 45.8071 157.753C46.717 157.911 48.456 158.205 49.3659 158.362C49.2315 159.187 48.9411 160.917 48.7259 161.72C47.9991 161.525 46.4646 161.114 45.657 160.898L45.5603 161.905C42.0984 161.58 38.4859 161.817 35.202 163.089C35.6005 163.54 36.2952 164.501 36.6937 164.952C36.1611 166.617 35.6876 168.383 35.1335 170.129C36.2102 169.987 37.2654 169.925 38.2399 169.842C38.1323 170.244 37.9171 171.047 37.8095 171.448C41.4706 171.999 44.5398 174.112 48.1794 174.743C48.034 174.963 47.8457 175.343 47.7219 175.482C46.3059 175.274 44.9707 175.089 43.5494 175.224C43.4418 175.626 43.2051 176.509 43.076 176.991C42.8281 175.978 42.5802 174.965 42.3324 173.951C41.0296 174.291 39.7052 174.711 38.3809 175.131C38.5368 174.225 38.6928 173.32 38.8487 172.415C35.6456 173.709 32.1463 174.493 29.0994 176.173C28.5718 176.203 27.5596 176.104 27.032 176.135C29.4548 176.784 31.7754 177.492 34.139 178.04C33.6653 178.515 32.6157 179.525 32.142 180.001C35.809 182.791 39.4544 185.661 43.019 188.51C38.5825 186.977 35.5398 183.149 31.4585 180.937C31.3455 181.681 31.1197 183.17 31.0068 183.914C30.0913 182.808 29.2351 181.804 28.2981 180.778C27.8837 181.356 27.3885 181.912 26.974 182.489C28.9344 185.511 30.997 188.474 33.0811 191.356C32.3165 190.979 30.7658 190.305 29.899 189.987C29.9909 191.905 30.8203 193.333 32.4464 194.371C32.877 194.056 33.7383 193.426 34.2497 193.133C34.4867 193.54 34.9229 194.174 35.0791 194.56L32.9793 193.997C33.1469 197.571 35.4356 200.337 38.4078 202.166C38.2195 202.546 37.7405 203.364 37.5521 203.744C51.3474 213.638 67.7476 218.979 83.2382 225.454C83.9918 225.226 84.6648 224.976 85.3162 224.806C85.4405 227.249 88.4499 226.679 90.1029 227.294C91.7989 227.748 94.2114 230.374 95.4223 228.116C95.3954 228.54 95.3633 229.306 95.358 229.649C114.154 237.353 133.161 244.598 151.79 252.603C152.199 252.368 152.915 251.957 153.222 251.781C153.185 252.89 153.616 253.866 154.456 254.608C155.048 254.336 156.313 253.814 156.905 253.543C160.718 257.405 166 259.337 170.808 261.744C170.835 261.321 170.888 260.474 170.937 259.971C171.669 261.114 172.482 262.279 173.215 263.422C173.505 262.983 174.087 262.106 174.377 261.667C174.512 264.716 178.217 265.106 180.117 266.735L179.837 265.196C181.308 268.431 185.006 269.164 187.882 270.709C202.764 278.484 217.706 286.361 232.507 294.114C232.734 293.917 233.288 293.463 233.536 293.185C234.069 295.394 236.745 296.713 238.71 295.518C238.624 295.839 238.452 296.482 238.366 296.803C239.792 297.616 241.322 298.37 242.727 299.263C242.937 298.803 243.416 297.984 243.604 297.604C244.267 298.04 244.848 298.454 245.408 298.948C244.977 299.263 244.078 299.711 243.648 300.026C260.334 306.563 276.492 315.713 290.326 327.08C300.141 332.121 309.333 339.49 320.187 342.915C320.559 342.498 321.199 341.723 321.571 341.306C321.442 341.788 321.264 342.773 321.135 343.255C323.159 343.453 325.141 343.812 327.165 344.01L326.519 345.128C331.133 345.676 335.204 347.283 339.565 347.16C339.532 346.635 339.548 345.606 339.596 345.103C335.036 343.709 330.314 342.271 327.169 338.502C327.212 338.341 327.239 337.918 327.282 337.758C330.233 338.376 333.129 338.55 336.128 338.665C335.676 339.06 334.669 339.909 334.217 340.304C335.262 340.929 337.27 342.155 338.234 342.758C338.325 342.094 338.589 340.787 338.68 340.123C339.407 340.318 340.861 340.707 341.507 340.88C341.555 340.377 341.733 339.392 341.862 338.91C342.669 339.126 344.285 339.559 345.092 339.775C344.075 338.728 342.998 337.579 341.877 336.59C344.844 337.471 347.752 338.25 350.718 339.131C350.239 338.658 349.361 337.734 348.984 337.203C350.416 335.09 353.183 335.746 353.9 337.918C354.131 337.377 354.411 336.333 354.642 335.792C357.744 337.14 360.533 339.006 363.01 341.392C364.608 337.688 360.285 337.993 357.824 337.162L358.422 335.256C355.843 335.512 353.248 335.505 350.642 334.893C349.426 336.202 347.961 335.207 346.776 334.459C347.648 333.144 348.719 332.053 349.85 331.065C350.124 331.655 350.776 332.777 351.132 333.388C352.746 331.239 354.447 328.768 352.907 326.117C351.432 325.808 350.742 324.504 350.317 323.185C349.908 323.42 349.149 323.991 348.739 324.226C348.965 322.737 349.132 321.146 349.277 319.636C348.324 319.638 347.29 319.62 346.337 319.623C346.757 318.702 347.155 317.862 347.554 317.022C347.096 316.469 346.121 315.261 345.663 314.708C345.491 315.35 345.066 316.614 344.894 317.256C344.732 317.213 344.409 317.126 344.248 317.083C345.124 311.551 341.658 314.151 342.582 306.824C346.072 310.599 349.561 314.375 352.701 318.487C343.776 301.721 326.998 290.683 313.552 277.87C305.674 270.767 297.102 263.994 289.391 256.591C280.28 247.952 268.413 241.846 259.834 232.833C272.127 241.55 284.727 250.091 295.718 260.438C296.304 260.509 296.789 260.639 297.354 260.791C298.324 262.342 299.541 263.615 300.758 264.888C301.102 264.894 301.791 264.906 302.055 264.891C303.116 267.069 304.543 269.173 307.198 269.282C310.946 274.676 317.186 277.553 321.161 282.75L321.796 281.026C322.183 282.163 322.49 283.278 322.857 284.495C323.384 284.464 324.337 284.462 324.784 284.409C330.864 292.408 340.389 297.887 346.442 306.309C346.759 304.156 346.894 302.04 347.372 299.93C346.511 300.56 345.569 301.168 344.649 301.696C344.858 299.945 345.149 298.215 344.911 296.516C344.696 297.319 344.163 298.984 343.868 299.766C341.207 297.417 339.382 294.862 339.683 291.156C339.505 292.141 339.15 294.112 338.973 295.097C338.418 294.26 337.368 292.687 336.813 291.85C336.21 291.516 334.902 290.908 334.196 290.632C334.509 290.114 335.111 289.156 335.343 288.616C334.896 288.668 333.9 288.831 333.372 288.862C327.681 284.583 323.319 279.541 318.898 274.396C318.79 273.507 318.66 272.697 318.472 271.786C314.127 269.589 312.462 264.495 308.488 261.88C308.617 261.399 308.897 260.355 309.026 259.873C311.547 263.389 312.316 262.131 313.102 258.554C313.236 259.021 313.371 259.487 313.484 260.034C312.795 261.313 312.026 262.57 311.315 263.929C312.71 264.217 314.185 264.526 315.579 264.813C315.386 265.536 314.896 267.04 314.702 267.763C317.663 267.696 319.613 271.403 322.665 269.38C322.967 270.839 323.145 272.436 322.898 274.005C323.226 273.749 323.985 273.177 324.335 272.841C326.112 274.608 327.868 276.455 328.988 278.735C329.02 277.969 329.084 276.437 329.116 275.671L331.577 276.503C331.324 277.123 330.84 278.285 330.587 278.906C331.136 278.795 332.153 278.551 332.622 278.418C332.848 279.512 332.972 280.664 333.199 281.757C333.661 280.676 334.043 279.574 334.485 278.573C331.281 275.993 328.551 272.937 325.201 270.576C325.471 270.218 325.971 269.319 326.159 268.939C325.551 268.949 324.313 269.047 323.624 269.035C324.415 266.406 325.022 263.815 325.469 261.18C324.425 263.138 323.704 265.183 323.144 267.271C322.347 266.369 320.812 264.666 319.994 263.844L321.776 263.978C322.653 262.319 323.45 260.639 324.004 258.893C323.229 259.202 321.597 259.798 320.801 260.187C321.037 259.304 321.473 257.355 321.71 256.471C320.859 256.415 319.239 256.325 318.388 256.27C318.625 255.386 319.077 253.7 319.313 252.816C320.918 252.644 322.484 252.289 323.992 251.832C323.96 252.598 324.035 254.254 324.003 255.02L326.243 254.415C326.495 251.211 326.118 248.098 326.208 244.851C326.079 245.333 325.74 246.275 325.53 246.735C324.992 246.161 323.996 245.033 323.479 244.378C323.193 244.474 322.564 244.563 322.3 244.578C321.987 242.515 322.067 239.954 319.687 239.144C319.364 237.766 319.1 236.491 318.755 235.193C318.33 235.165 317.458 235.19 317.032 235.162C318.12 233.043 317.758 230.192 314.819 230.179C315.05 229.638 315.33 228.594 315.54 228.134C314.77 228.1 313.23 228.032 312.482 227.917C312.735 227.296 313.16 226.033 313.413 225.412C312.885 225.443 311.83 225.504 311.221 225.514C311.049 224.865 310.747 223.407 310.575 222.758C311.011 222.1 311.861 220.865 312.276 220.287C312.701 221.606 313.477 222.589 315.065 222.154C314.898 222.453 314.624 223.154 314.435 223.534C317.149 225.036 320.541 225.945 322.345 228.58C322.464 230.075 321.602 230.705 319.901 230.594L319.998 230.878C320.768 230.912 322.329 230.9 323.121 230.854C323.336 231.342 323.848 232.34 324.144 232.85C324.058 231.88 324.133 230.953 324.267 230.128C324.633 230.054 325.306 229.804 325.694 229.65C330.104 232.897 336.026 234.054 340.07 237.375C342.461 237.499 344.442 239.149 346.714 239.069C346.822 238.668 346.956 237.843 347.085 237.361C348.388 238.313 349.794 239.206 351.118 240.077C350.634 239.948 349.605 239.586 349.142 239.376C348.566 239.91 347.355 240.877 346.72 241.309C352.653 243.071 357.091 248.478 363.476 248.553C363.492 248.816 363.584 249.443 363.578 249.786C365.899 250.494 368.295 251.566 370.604 250.377C370.858 251.048 371.466 252.33 371.741 252.92C376.877 251.197 382.498 252.187 387.946 251.237C387.983 248.836 385.819 249.806 384.473 250.306C383.009 249.311 381.027 248.952 379.999 247.299C381.21 247.624 382.4 248.029 383.568 248.514C384.036 247.09 384.402 245.725 384.768 244.36C386.243 244.669 387.697 245.058 389.07 245.426C389.463 244.929 390.308 244.036 390.701 243.539C387.024 242.726 383.54 241.19 380.514 238.916L380.449 240.448C379.782 239.064 379.135 237.6 378.365 236.274C378.215 236.836 377.972 238.063 377.903 238.647C377.337 237.204 376.158 236.113 374.957 235.103C376.045 235.566 377.197 235.789 378.273 235.647C379.259 236.169 380.223 236.772 381.127 237.273L379.41 238.19C384.224 240.254 389.29 241.698 394.147 243.602C392.423 240.988 397.392 238.274 394.027 235.65C394.64 235.298 395.254 234.946 395.948 234.616C396.891 235.299 397.811 236.062 398.754 236.745C401.241 235.862 403.233 234.244 404.664 232.131C404.271 231.337 403.463 229.829 403.07 229.036C404.141 229.237 405.191 229.518 406.241 229.799C406.209 229.274 406.166 228.143 406.133 227.618C405.406 227.424 404.055 226.975 403.409 226.802C403.775 225.437 404.038 224.13 404.323 222.743C403.354 221.192 402.465 219.663 401.496 218.112C400.887 218.121 400.198 218.109 399.59 218.118C399.961 215.119 398.313 212.87 395.965 211.294C395.653 211.813 395.05 212.77 394.738 213.289C394.679 211.896 394.721 210.444 394.743 209.072L393.004 208.779C392.912 209.443 392.67 210.669 392.579 211.333C392.971 209.545 392.551 207.883 391.415 206.631C391.119 207.413 390.506 209.056 390.107 209.896C390.231 208.466 390.354 207.036 390.478 205.606C387.694 202.105 382.041 200.59 381.733 195.601C389.051 202.21 397.526 208.699 402.707 217.146C405.033 218.802 405.863 221.52 405.212 224.273C405.756 224.504 406.865 224.888 407.409 225.12C402.419 204.329 380.623 192.636 366.062 178.491C373.003 181.986 378.469 187.755 384.559 192.485L385.021 190.113C385.086 191.163 385.21 192.315 385.253 193.446C393.556 199.286 398.673 207.973 406.039 214.079ZM72.5252 14.1053C70.813 13.3883 69.2031 12.6126 67.6362 11.6763C69.8811 10.7284 72.2768 10.5096 74.7481 10.6553C73.9999 11.8321 73.2518 13.0089 72.5252 14.1053ZM84.5101 16.542C81.1773 15.735 77.8231 15.0084 74.4043 14.5227C74.5549 13.9606 74.8777 12.7559 75.0283 12.1937C75.7929 12.5707 76.5575 12.9478 77.3221 13.3248C77.3489 12.9016 77.4026 12.0552 77.4294 11.632C78.0755 11.8051 79.2654 12.21 79.8307 12.3615C79.9439 12.9083 80.0679 14.0605 80.1811 14.6073C80.2133 13.8413 80.2776 12.3091 80.3097 11.543L82.5333 11.9667C82.4796 12.8131 82.3561 14.2433 82.324 15.0094C82.6792 14.3298 83.2873 13.0295 83.6425 12.3499L85.6023 12.789C85.3655 13.6724 84.8491 15.5999 84.5101 16.542ZM96.1054 36.2618C96.0459 34.8686 96.6596 34.5166 97.9464 35.2057C98.0059 36.5989 97.3923 36.9509 96.1054 36.2618ZM99.8604 21.6019C99.774 20.6319 99.6662 19.7423 99.6606 18.7939C99.4669 19.5167 98.9988 20.9407 98.8052 21.6635C98.2021 21.3297 97.0175 20.5819 96.5167 20.1895C96.4843 19.6644 96.5218 18.5554 96.5917 17.9716C96.4626 18.4535 96.1828 19.4975 96.0537 19.9794C92.5647 18.7863 89.0327 17.7538 85.4577 16.882C85.6944 15.9985 86.1894 14.1514 86.4476 13.1877C89.4358 13.9883 92.5047 14.8107 95.4283 15.8523C94.8739 16.3063 93.8458 17.2358 93.2913 17.6898C93.905 17.3378 95.0516 16.6121 95.6653 16.2601C98.815 17.104 101.841 18.087 104.969 19.0113L104.77 20.0769C103.516 19.913 102.159 19.8076 100.883 19.724C101.852 19.9837 103.812 20.4227 104.781 20.6824L104.787 22.922C103.575 22.5974 101.072 21.9265 99.8604 21.6019ZM39.8127 200.476C41.7026 201.499 43.4902 202.581 45.2779 203.662C45.1057 204.305 44.7829 205.51 44.6108 206.152C43.2859 203.989 41.4874 202.302 39.8127 200.476ZM79.7743 161.173C77.5292 160.83 75.2033 160.465 73.0012 159.961C75.3646 159.217 77.895 159.465 79.7743 161.173ZM76.695 162.328C76.1676 163.65 75.457 163.718 74.5415 162.612C74.9881 161.268 75.801 161.142 76.695 162.328ZM56.9347 154.021C60.4771 153.076 64.1491 154.232 67.5894 154.638C69.4145 154.61 71.2558 154.845 72.8012 155.862C67.5466 156.089 62.1034 155.406 56.9347 154.021ZM69.7436 158.228C70.3467 158.561 70.9498 158.895 71.5528 159.229C69.4801 159.534 67.2783 160.321 65.1838 159.416C66.7719 158.981 68.2578 158.604 69.7436 158.228ZM57.1939 211.848C60.2413 212.75 63.1434 213.872 66.024 215.075C62.8206 215.077 59.8001 213.751 57.1939 211.848ZM126.995 157.127C129.902 157.906 132.433 159.445 135.066 160.925C135.513 160.873 136.407 160.768 136.853 160.716C136.999 161.788 137.328 162.823 137.942 163.762C137.974 162.996 138.038 161.464 138.151 160.719C139.901 161.618 140.24 163.259 139.767 165.026C137.172 163.728 134.14 163.088 132.024 160.971C129.736 162.08 127.222 160.803 124.917 160.358C125.563 159.24 126.29 158.143 126.995 157.127ZM127.594 162.969C127.088 164.21 126.275 164.337 125.381 163.151C125.908 161.829 126.7 161.782 127.594 162.969ZM92.0953 148.465C95.0027 149.244 97.9102 150.023 100.715 150.86C101.194 150.042 101.652 149.304 102.109 148.565C102.605 149.301 103.181 150.058 103.655 150.873C104.403 150.988 105.819 151.195 106.568 151.309C107.106 150.593 107.563 149.855 108.102 149.138C109.475 150.797 110.907 152.558 113.045 153.303C113.115 152.719 113.335 151.573 113.507 150.931C113.658 151.66 114.062 153.059 114.213 153.788C116.194 154.147 118.176 154.506 120.076 154.843C120.141 155.893 120.125 156.922 120.19 157.972C120.303 157.228 120.609 155.761 120.722 155.016C121.508 155.313 123.021 155.804 123.727 156.079C123.452 156.781 122.903 158.183 122.548 158.862C123.619 157.772 124.491 156.456 126.193 156.568C125.332 158.489 124.331 160.287 123.389 162.186C122.317 161.985 121.246 161.784 120.094 161.562C120.18 161.24 120.271 160.576 120.277 160.233C120.697 160.604 121.537 161.346 122.016 161.819C122.49 161.343 123.496 160.494 123.948 160.098C119.523 159.171 115.463 156.878 110.908 156.432L110.537 156.849C110.478 159.329 114.3 158.632 115.867 159.568C115.803 159.809 115.571 160.35 115.507 160.591C113.676 159.67 111.764 158.727 109.912 157.887L109.1 159.304C108.879 157.868 108.921 156.416 108.21 155.193C101.534 154.265 95.1595 152.212 88.8061 150.079C90.012 149.456 91.094 148.971 92.0953 148.465ZM102.078 155.788C100.905 156.937 100.076 156.8 99.5532 155.197C100.646 154.027 101.556 154.184 102.078 155.788ZM98.0565 154.968C96.9476 155.876 96.2208 155.681 95.8759 154.384C96.9256 153.374 97.6524 153.569 98.0565 154.968ZM143.878 182.31C143.124 181.247 140.922 180.743 141.17 179.174C142.494 178.754 143.442 179.094 144.233 180.339C144.185 180.842 144.19 181.791 144.164 182.214L143.878 182.31ZM92.1784 160.107C93.1258 159.156 94.3855 158.977 95.6132 159.564C114.14 163.754 131.795 170.55 149.681 176.806C150.871 177.211 151.915 177.835 152.836 178.598C132.662 172.16 113.041 163.976 92.1784 160.107ZM164.109 173.356C164.017 172.728 163.753 171.453 163.581 170.804C163.209 171.221 162.526 172.157 162.154 172.574C161.4 171.511 160.55 170.164 159.021 170.701C156.135 171.133 153.47 169.128 150.627 169.399C150.207 170.319 150.213 171.268 150.644 172.244C150.229 171.53 149.529 170.912 149.114 170.199C149.163 169.695 149.319 168.79 149.426 168.388C146.653 166.785 143.584 165.962 140.456 165.038C140.617 163.79 140.838 162.644 141.08 161.418C141.941 162.079 142.577 162.938 143.008 163.914C143.858 163.97 145.538 164.162 146.47 164.239C147.315 165.929 149.803 167.629 151.294 165.618C151.897 165.952 153.022 166.597 153.625 166.931C153.857 166.391 154.298 165.39 154.529 164.849C154.508 166.221 154.406 167.571 154.283 169.001C158.04 167.253 161.459 170.322 165.018 170.931C165.088 171.638 165.126 173.112 165.175 173.899L164.109 173.356ZM170.231 176.029C169.008 175.099 167.512 174.87 166.015 174.641C166.268 174.02 166.693 172.757 166.887 172.034C168.48 172.547 170.053 173.141 171.625 173.734L171.071 175.479C172.19 175.177 173.289 174.954 174.328 174.63C174.155 175.273 173.892 176.579 173.72 177.222C172.514 176.554 171.205 175.946 169.978 175.358L170.231 176.029ZM170.847 186.007C171.374 184.685 172.085 184.617 173.059 185.825C172.532 187.147 171.821 187.215 170.847 186.007ZM174.969 177.729C174.484 176.308 176.982 176.03 177.618 176.889C178.183 178.332 175.642 178.77 174.969 177.729ZM178.345 179.666C178.399 178.82 178.587 177.149 178.64 176.302C179.249 177.584 179.045 180.284 181.285 179.679C181.376 179.015 181.499 177.585 181.591 176.921C182.016 178.24 181.974 179.692 182.033 181.085C180.784 180.578 179.535 180.071 178.345 179.666ZM191.251 184.157C190.642 184.167 189.528 184.126 188.92 184.135C188.887 183.61 188.925 182.501 188.973 181.998C186.841 182.201 184.795 182.083 182.712 181.783C183.46 180.606 184.165 179.59 185.134 178.559C185.102 179.325 184.897 180.733 184.887 181.419C185.635 181.534 187.073 181.661 187.821 181.775C187.546 181.185 186.997 180.005 186.722 179.415C187.74 181.753 191.013 181.167 191.725 183.682C192.252 183.651 193.329 183.509 193.797 183.376L193.641 184.281L192.166 183.972C192.419 184.643 192.926 185.983 193.098 186.632C192.64 186.079 191.687 184.791 191.251 184.157ZM242.329 85.5994C241.656 85.8494 240.31 86.3496 239.637 86.5997C239.707 86.0158 239.885 85.0305 239.955 84.4467C240.698 84.904 241.505 85.1204 242.329 85.5994ZM236.794 82.9972C237.661 83.3156 238.485 83.7946 239.33 84.1932C238.603 83.9985 237.693 83.8407 237.128 83.6892C237.16 84.2144 237.166 85.1627 237.198 85.6879C235.443 85.1315 233.629 84.4732 231.895 83.8364C232.815 83.3084 233.714 82.8607 234.673 82.5149C234.086 82.4437 232.971 82.4033 232.363 82.4125L232.648 79.7343C234.112 80.7293 235.577 81.7243 236.794 82.9972ZM211.127 71.2134C212.015 71.4514 213.609 71.9645 214.417 72.1809L215.014 71.5663C213.189 71.5938 212.026 70.7657 211.444 69.0604C214.276 69.4749 216.521 71.1095 216.964 73.9824C217.033 73.3986 217.152 72.3112 217.2 71.8077C219.795 73.1057 222.369 74.4839 224.943 75.8622C224.631 76.3811 223.947 77.3169 223.656 77.7555C226.025 76.6686 228.324 77.4568 230.392 78.7855C230.16 79.3261 229.8 80.3485 229.568 80.889C230.258 80.9015 231.555 80.9049 232.266 80.8371C232.094 81.4795 231.749 82.7645 231.658 83.4286C227.474 79.9835 211.957 75.2232 211.127 71.2134C210.976 71.7756 210.826 72.3377 210.82 72.6806C209.544 71.3057 205.151 70.9033 206.2 68.6021C207.315 68.6425 208.278 69.2451 209.264 69.7673C209.291 69.3441 209.404 68.5997 209.43 68.1765C212.02 67.2349 211.52 69.4249 211.127 71.2134ZM175.213 52.1218C176.995 53.5462 178.858 54.9923 180.619 56.497C180.732 55.7526 180.796 54.2204 180.769 53.3524C183.343 54.7307 185.917 56.1089 188.265 57.6848C187.209 57.7464 185.12 57.7892 184.087 57.7704C186.009 59.3185 188.351 58.6548 190.547 58.2104C194.445 59.1688 198.684 64.35 202.597 61.6974C202.543 62.5437 202.387 63.4488 202.334 64.2952C204.121 65.3767 207.099 65.572 208.165 67.4071C207.557 67.4162 206.238 67.4932 205.629 67.5023C205.177 67.8976 204.375 68.6296 203.923 69.0249C197.381 65.9808 190.904 62.6958 184.738 58.8919L184.168 59.0833C183.398 60.3404 184.007 61.6225 184.454 62.8613C183.775 62.163 183.097 61.4647 182.316 60.8252C182.73 60.2476 183.086 59.5681 183.177 58.9039C180.948 56.2407 177.405 55.894 174.573 54.1883L175.213 52.1218ZM156.884 41.7018C159.738 43.3272 162.716 44.8136 165.672 46.3804C164.902 46.3463 163.443 46.2996 162.673 46.2655C162.786 46.8123 163.072 48.0078 163.163 48.6349C164.735 45.3546 168.633 47.6043 171.25 48.8219C171.282 48.0558 171.325 46.604 171.416 45.9399C171.481 46.9901 171.627 48.0621 171.67 49.1927C172.354 49.5481 173.743 50.1785 174.427 50.5339C174.308 51.6212 174.19 52.7085 173.991 53.7742C171.622 52.2786 168.855 51.6232 166.507 50.0473C166.9 49.55 167.481 48.6729 167.874 48.1756C166.243 48.7714 164.714 49.3086 162.927 49.5183C162.991 49.2774 163.056 49.0364 163.201 48.8172C160.482 47.6582 157.763 46.4992 155.044 45.3403C155.63 44.1202 156.217 42.9002 156.884 41.7018ZM154.317 43.8543C152.971 44.3545 152.309 43.9188 152.411 42.5689C153.778 41.9884 154.44 42.4241 154.317 43.8543ZM132.246 32.862C131.912 32.17 131.244 30.786 131.013 30.0353C133.624 31.5958 136.483 32.8783 139.348 33.818C136.866 34.3581 134.577 32.8841 132.214 32.3369C132.914 32.9548 134.292 34.271 134.992 34.889C134.928 35.1299 134.74 35.5098 134.675 35.7508C133.135 34.3913 131.347 33.3097 129.517 32.3888L129.5 32.1262C130.146 32.2994 131.519 32.6672 132.246 32.862ZM128.413 31.6627C128.187 33.1515 125.899 31.6776 125.812 30.7076C126.162 29.0797 128.472 30.4734 128.413 31.6627ZM127.524 28.8422C126.797 28.6474 125.22 28.3969 124.471 28.2824C124.073 29.1226 123.594 29.9411 123.115 30.7596C123.249 29.9348 123.437 28.2637 123.55 27.5192C122.522 27.1576 120.444 26.5147 119.394 26.2333L118.92 28.0002C119.69 28.0343 121.209 28.1829 121.957 28.2974C121.709 28.5753 121.376 29.1745 121.128 29.4525C118.899 28.0805 116.234 27.3664 113.902 26.053C118.333 24.0553 123.356 26.9508 127.524 28.8422ZM97.8384 114.109C97.9245 113.788 98.1558 113.248 98.2204 113.007C101.543 114.499 105.01 115.773 107.605 118.362C104.531 116.591 101.29 115.12 97.8384 114.109ZM152.806 53.6926C152.44 53.7667 151.788 53.9364 151.422 54.0105C140.513 47.5583 128.167 43.5616 116.823 37.7673C123.816 39.1249 129.815 43.2284 136.491 45.4477C146.592 50.3922 156.801 54.9352 166.757 60.0991C161.895 58.5381 156.995 56.7949 152.806 53.6926ZM167.053 60.6089C189.877 70.0815 211.458 82.5781 233.442 93.8916C233.135 94.0676 232.543 94.3394 232.236 94.5154C211.059 82.127 188.397 72.6976 167.053 60.6089ZM232.07 99.9799C230.638 99.51 229.184 99.1205 227.752 98.6507C227.72 98.1255 227.596 96.9733 227.563 96.4482C229.066 97.6254 230.568 98.8026 232.07 99.9799ZM198.71 198.637L198.963 198.016C203.949 200.73 209.619 202.507 213.776 206.375C208.682 204.064 203.885 200.971 198.71 198.637ZM251.402 94.056C248.824 94.3118 249.673 89.2027 251.967 90.3338C252.333 91.5509 252.167 93.1418 251.402 94.056ZM253.815 95.3909C253.599 93.6116 256.829 93.186 257.911 93.9924C257.605 95.4597 254.978 96.219 253.815 95.3909ZM345.795 325.847C345.741 326.693 345.596 328.204 345.462 329.029C346.657 329.091 347.852 329.153 349.047 329.215C347.949 330.728 346.232 331.645 344.617 332.504C344.369 330.199 343.862 327.567 345.795 325.847ZM342.69 333.881C341.554 335.212 340.338 336.522 339.121 337.831C338.739 337.643 337.996 337.185 337.614 336.997C338.389 336.688 339.837 336.129 340.531 335.799C339.503 335.437 338.453 335.156 337.403 334.875C337.468 334.634 337.575 334.232 337.64 333.991C339.303 333.92 341.048 333.871 342.69 333.881ZM286.033 320.163C286.523 318.659 288.65 320.09 288.429 321.236C287.999 322.842 285.813 321.309 286.033 320.163ZM316.783 334.944C318.027 334.503 319.448 335.659 319.938 336.737C319.287 338.198 315.971 336.362 316.783 334.944ZM318.7 334.253C319.749 333.243 320.476 333.438 320.676 334.954C319.728 335.906 319.001 335.711 318.7 334.253ZM320.89 327.695C320.696 327.127 320.41 325.931 320.216 325.363C319.667 325.474 318.488 325.675 317.858 325.764C318.009 325.202 318.332 323.997 318.482 323.435C319.424 324.118 320.388 324.72 321.25 325.382C321.465 325.87 321.837 326.744 321.993 327.13C324.4 327.517 326.387 328.824 328.126 330.409C325.423 330.804 323.286 328.768 320.89 327.695ZM327.997 332.182C328.229 331.641 328.632 330.458 328.863 329.918C329.24 330.449 329.892 331.571 330.248 332.182C332.39 332.584 334.689 333.373 335.465 335.646C333.112 334.413 330.512 333.458 327.997 332.182ZM312.621 280.375C317.139 281.93 319.207 287.133 323.708 288.425C324.161 289.321 324.532 290.195 324.985 291.091C325.55 291.242 326.702 291.465 327.289 291.536C330.736 296.764 336.987 300.246 340.778 305.48C342.318 306.839 341.737 309.008 341.932 310.867C339.18 310.474 339.869 307.905 339.309 306.119C338.485 306.931 337.861 307.969 337.398 309.05C337.597 307.984 337.796 306.919 337.914 305.831C337.387 305.862 336.353 305.843 335.825 305.874C335.744 304.561 335.583 303.227 335.399 301.973C334.807 302.244 333.623 302.788 333.031 303.059C332.928 301.827 332.906 300.616 332.782 299.464C332.249 299.837 331.103 300.563 330.57 300.937C330.386 299.683 330.144 298.326 329.961 297.072C327.866 294.876 325.593 292.373 322.374 292.113C322.32 291.668 322.19 290.859 322.137 290.414C320.688 289.681 319.283 288.788 317.937 287.997L318.222 286.61C317.452 286.576 315.993 286.53 315.244 286.415C315.336 285.751 315.578 284.525 315.669 283.861C314.21 283.814 312.73 283.848 311.271 283.801C311.653 282.698 312.137 281.537 312.621 280.375ZM311.733 278.846C311.668 279.087 311.561 279.489 311.415 279.708C310.155 279.887 308.88 279.803 307.56 279.88C307.296 277.313 304.986 275.919 302.666 275.212C302.493 274.563 302.089 273.163 301.836 272.493C301.244 274.056 300.711 275.721 300.12 277.284C300.469 275.656 300.9 274.05 301.249 272.422C299.865 271.449 298.562 270.497 297.178 269.524C296.753 269.496 295.962 269.542 295.536 269.514C295.423 268.967 295.278 267.895 295.186 267.268C294.324 266.607 293.441 266.026 292.558 265.445C292.547 264.84 292.526 263.629 292.595 263.045C298.465 268.921 305.346 273.606 311.733 278.846ZM284.508 256.402C287.356 258.37 290.183 260.419 291.982 263.397C290.932 263.116 288.811 262.633 287.739 262.432C287.556 261.178 287.044 260.18 286.226 259.358C285.994 259.899 285.634 260.921 285.505 261.403L285.139 261.477C285.117 260.266 285.176 259.077 285.154 257.866C279.657 256.737 276.926 251.099 272.204 248.371C271.714 248.584 270.837 248.951 270.347 249.164C270.363 248.136 270.357 247.187 270.33 246.319C274.939 249.792 279.941 252.768 284.508 256.402ZM319.81 258.717C321.059 259.223 321.097 261.988 319.417 261.796C318.088 261.268 318.189 258.627 319.81 258.717ZM321.945 249.132C323.281 250.608 320.966 252.14 320.163 250.29C319.092 248.797 321.267 247.142 321.945 249.132ZM316.25 255.525C318.571 256.233 316.752 259.791 317.393 261.598C314.911 260.847 312.67 256.287 316.25 255.525ZM294.38 115.212C294.187 115.935 293.961 117.424 293.767 118.147C294.16 117.65 294.967 116.575 295.382 115.997C296.324 116.68 297.347 117.385 298.29 118.068C297.697 118.339 296.535 118.802 295.942 119.074C296.422 119.547 297.321 120.39 297.8 120.863C298.215 120.285 299.124 119.152 299.619 118.596C299.808 119.507 300.245 121.432 300.433 122.343C301.531 120.83 302.893 120.592 304.638 121.834L304.966 120.287C304.977 120.892 305.101 122.045 305.112 122.65C305.984 122.625 307.669 122.474 308.541 122.45C307.949 122.722 306.743 123.345 306.151 123.617C309.263 125.57 312.252 127.662 315.283 129.593C315.197 129.914 315.025 130.557 314.96 130.798C314.158 130.239 313.356 129.679 312.473 129.098C312.484 129.704 312.629 130.776 312.721 131.403C311.493 130.816 310.163 130.287 308.833 129.759C308.516 129.329 307.88 128.47 307.562 128.041C303.67 126.74 300.59 124.021 297.65 121.425C294.974 120.106 290.871 119.265 290.52 115.728C291.516 115.564 293.384 115.376 294.38 115.212ZM259.5 94.8484C259.613 95.3952 259.839 96.4888 259.953 97.0356C260.992 98.0027 262.01 99.0501 262.903 100.236C260.847 99.5132 258.935 98.5706 257.11 97.3068C257.729 96.6119 258.902 95.463 259.5 94.8484ZM236.404 208.823C236.534 208.342 236.77 207.458 236.878 207.057C234.304 206.97 231.844 206.138 229.841 204.569C232.603 204.276 235.397 204.508 237.89 205.864C237.755 206.689 237.589 208.28 237.454 209.105L236.404 208.823ZM269.823 105.103C270.092 103.454 269.994 101.878 269.348 100.414C268.772 100.948 267.679 102.119 267.103 102.653C265.757 101.862 264.287 101.21 262.796 100.638C263.232 99.9801 263.646 99.4025 264.001 98.723C263.404 98.0464 262.246 96.8754 261.729 96.2204C266.133 98.5196 270.866 100.562 274.566 103.878C273.656 103.72 271.895 103.507 271.066 103.37C270.754 103.889 270.113 104.665 269.823 105.103ZM270.282 114.695C271.542 114.516 272.969 115.329 273.518 116.509C272.905 118.152 269.572 116.054 270.282 114.695ZM274.685 107.955C273.242 106.88 271.82 105.724 270.953 104.115C272.326 104.483 273.634 105.092 274.943 105.7C274.97 105.277 275.126 104.372 275.255 103.89C277.436 105.766 280.155 106.925 282.712 108.04C282.266 109.384 281.9 110.749 281.453 112.093C280.974 111.62 280.096 110.696 279.617 110.224L281.905 109.115C281.286 108.519 279.945 107.385 279.223 106.847C279.229 107.796 279.342 109.634 279.348 110.582C278.389 109.637 277.431 108.691 276.472 107.746C276.025 107.798 275.132 107.903 274.685 107.955ZM247.305 225C251.833 227.16 256.291 229.904 259.619 233.636C255.155 231.235 251.004 228.315 247.305 225ZM282.451 122.259C285.73 123.913 288.799 126.026 292.035 127.84C294.103 129.169 296.58 130.263 297.393 132.719C292.337 129.298 286.786 126.433 282.451 122.259ZM277.55 221.312C274.842 219.467 272.424 217.184 270.458 214.505C273.269 216.291 275.994 218.398 277.55 221.312ZM279.097 205.2C280.066 204.168 280.691 204.421 280.993 205.88C280.024 206.911 279.399 206.658 279.097 205.2ZM267.86 226.462C269.567 227.522 271.683 228.347 272.523 230.38C277.817 234.209 282.797 238.556 286.793 243.672C279.917 238.645 273.746 232.601 267.86 226.462ZM286.446 232.045C284.712 227.535 279.715 225.507 277.857 221.136C282.423 224.769 286.144 229.296 290.215 233.485C288.966 232.978 287.717 232.471 286.446 232.045ZM281.51 207.826C282.42 206.692 283.066 206.865 283.529 208.367C282.619 209.5 281.973 209.327 281.51 207.826ZM288.901 229.346C289.81 228.212 290.457 228.385 290.92 229.887C290.01 231.02 289.364 230.847 288.901 229.346ZM298.998 133.837C298.842 133.451 298.449 132.657 298.292 132.271C304.624 135.775 310.418 139.996 316.438 144.019L316.406 144.785C310.397 141.368 304.759 137.533 298.998 133.837ZM314.643 132.951C315.806 132.488 316.866 132.083 318.029 131.62C319.198 132.105 320.425 132.693 321.594 133.178C321.26 133.777 320.571 135.056 320.237 135.655C320.83 135.383 322.014 134.84 322.687 134.59C323.974 135.279 325.261 135.968 326.526 136.737C325.239 137.34 324.034 137.963 322.747 138.565C319.769 137.079 316.959 135.293 314.643 132.951ZM295.59 239.918C298.099 241.537 300.194 243.734 301.653 246.363C299.063 244.722 297.071 242.466 295.59 239.918ZM317.439 274.35C316.346 275.52 315.56 275.224 315.059 273.54C316.254 272.311 317.04 272.607 317.439 274.35ZM314.251 272.032C312.77 272.066 312.334 271.433 312.84 270.191C314.321 270.157 314.778 270.71 314.251 272.032ZM304.079 261.215C307.019 263.811 310.061 266.348 312.199 269.675C308.129 266.777 305.129 262.788 301.037 259.97C301.085 259.466 301.182 258.459 301.128 258.015C302.043 259.121 302.959 260.227 304.079 261.215ZM325.716 151.067C330.465 153.373 334.837 156.438 338.612 160.118C334.234 157.395 329.986 154.191 325.716 151.067ZM351.726 156.401C350.617 157.309 349.277 157.467 347.705 156.873C345.26 153.722 341.039 152.677 338.594 149.525C332.999 146.821 328.013 142.817 323.269 138.877C324.303 138.896 325.315 138.995 326.327 139.094C326.435 138.693 326.569 137.868 326.575 137.525C327.942 138.236 329.267 139.107 330.554 139.796C330.242 140.315 329.558 141.251 329.165 141.748C331.06 142.428 333.042 142.787 334.942 143.124L335.814 141.808C335.653 143.056 335.551 144.406 335.368 145.735C339.083 145.439 341.942 148.013 344.521 150.339C344.473 150.843 344.296 151.828 344.167 152.31C346.794 151.551 351.171 152.982 349.659 156.364C350.838 156.163 351.915 156.021 353.094 155.821C353.002 156.485 352.739 157.792 352.626 158.536C352.394 157.785 352.082 157.013 351.726 156.401ZM357.8 162.161C358.274 161.685 359.038 160.771 359.512 160.295C361.127 162.019 362.232 164.037 363.05 166.15C363.443 165.652 364.251 164.578 364.746 164.022C364.773 164.89 364.886 166.728 364.913 167.596C362.28 166.115 360.04 164.138 357.8 162.161ZM379.401 246.623C380.639 247.815 378.675 250.302 377.361 248.745C376.327 247.435 378.168 245.087 379.401 246.623ZM366.464 165.687C367.567 166.413 368.59 167.118 369.614 167.822C368.51 168.387 367.406 168.952 366.222 169.496C366.303 168.226 366.383 166.957 366.464 165.687ZM368.596 169.357C370.055 169.404 372.586 170.943 372.156 172.549C370.718 172.422 368.144 171.044 368.596 169.357ZM373.27 173.881C372.317 172.592 374.433 170.835 375.467 172.145C376.199 173.288 374.283 175.271 373.27 173.881ZM375.893 176.047C375.225 174.662 377.62 173.152 378.224 174.777C379.053 176.205 376.598 177.613 375.893 176.047Z" fill="#00DF9A"/>
</svg>
