<svg width="363" height="403" viewBox="0 0 363 403" fill="none" xmlns="http://www.w3.org/2000/svg">
<path d="M358.059 291.008C358.795 295.753 359.884 300.222 357.679 304.709C361.913 300.721 358.901 294.566 362.328 290.304C361.417 289.874 360.465 289.516 359.555 289.087C357.719 285.243 357.003 280.797 354.162 277.525C355.127 276.354 356.093 275.183 356.986 273.971C354.389 272.951 353.918 270.088 353.157 267.728C349.22 263.343 347.461 257.527 343.171 253.418C342.797 254.066 342.049 255.362 341.675 256.01C342.963 253.778 343.166 250.919 340.548 249.6C341.047 248.736 342.045 247.008 342.544 246.144C342.418 247.031 342.207 248.733 342.081 249.621C343.127 249.648 344.101 249.634 345.147 249.662C344.669 250.155 343.714 251.14 343.279 251.56C344.292 252.145 345.665 254.282 346.313 251.488C348.327 254.187 349.292 258.2 352.988 258.99C352.501 258.997 351.6 259.053 351.113 259.06C351.701 260.551 352.288 262.042 352.533 263.624C352.834 263.605 353.32 263.598 353.579 263.651C356.14 267.242 358.306 271.853 362.548 273.534C362.5 271.778 362.41 270.094 362.434 268.38C362.062 268.357 361.347 268.424 360.933 268.473C356.639 261.194 354.12 252.347 347.794 246.582C348.417 245.502 349.041 244.422 349.664 243.342C348.69 244.027 347.756 244.641 346.781 245.326C346.844 244.882 347.012 243.923 347.003 243.437C345.339 241.805 342.256 240.121 343.763 237.343C342.831 237.285 341.972 237.269 340.998 237.283C340.916 236.755 340.722 235.587 340.568 235.018C340.195 234.995 339.563 234.918 339.191 234.895C339.143 233.139 338.141 231.697 337.098 230.326C336.622 230.147 335.639 229.676 335.09 229.455C335.869 228.273 335.945 226.972 334.735 225.89L333.365 227.595C332.812 224.204 330.332 221.812 328.276 219.185C327.809 219.491 326.99 220.074 326.565 220.309C326.597 219.752 326.776 218.606 326.849 217.977C322.557 215.211 319.003 211.334 316.412 206.959C315.203 205.876 313.496 204.987 313.872 202.996C313.366 202.704 312.238 202.149 311.731 201.856C311.939 201.496 312.385 200.89 312.593 200.53C308.878 199.44 306.917 195.812 304.458 193.049C305.154 192.01 305.736 191.002 305.397 189.75C304.744 190.045 303.479 190.563 302.795 190.745C302.931 190.343 303.129 189.497 303.223 189.167C301.444 188.236 299.509 187.407 298.54 185.407C296.982 182.588 293.618 181.222 292.911 177.933C291.194 176.558 289.292 175.172 288.094 173.232C289.192 173.002 290.405 172.742 291.503 172.512C290.24 172.359 288.935 172.277 287.672 172.124C289.603 169.783 286.303 167.974 285.156 166.448C283.597 164.299 280.447 165.073 278.763 163.14C277.059 160.908 274.195 158.679 275.723 155.529C275.267 155.65 274.242 155.922 273.744 156.115C273.157 154.623 271.698 153.973 270.364 153.107C267.48 150.578 264.928 147.472 262.635 144.42C262.19 144.355 261.185 144.256 260.74 144.19C260.877 143.117 261.014 142.044 261.109 141.043C259.672 140.021 258.234 138.999 256.797 137.977C256.872 136.677 256.875 135.334 256.805 133.95C256.397 135.827 256.145 137.601 255.851 139.448C254.633 137.88 253.455 136.24 252.206 134.559C252.31 134.043 252.489 132.898 252.593 132.382C252.014 132.048 250.741 131.409 250.162 131.075C250.208 128.989 249.095 126.234 246.609 126.527C246.031 125.521 245.162 125.02 243.971 124.908C243.962 124.423 243.912 123.338 243.831 122.811C242.743 122.855 241.625 122.785 240.537 122.83C240.881 122.068 241.536 120.43 241.88 119.668C241.102 120.179 240.282 120.762 239.463 121.345C237.831 119.155 236.21 116.779 235.657 114.059L235.186 116.38C233.781 114.8 232.417 113.149 231.903 111.028C231.571 111.604 231.238 112.181 230.906 112.757C231.06 113.326 231.296 114.422 231.45 114.991C227.985 112.798 225.879 109.758 225.141 105.684C224.798 106.446 224.225 107.94 223.882 108.701C223.252 107.954 222.549 107.164 221.919 106.416C222.378 104.953 222.764 103.448 223.036 101.973C222.36 103.311 221.726 104.576 221.05 105.914C218.457 102.881 214.619 100.665 213.809 96.5496C210.741 97.8504 209.288 94.5151 207.251 92.8591C207.325 92.2297 207.617 91.0544 207.691 90.4249C206.531 90.4273 205.402 90.5435 204.242 90.5458C202.609 89.0269 200.934 87.5799 199.301 86.061C199.479 84.9159 199.585 83.729 199.691 82.5421C199.389 83.2319 198.744 84.6836 198.401 85.4455C195.457 82.0173 190.977 79.9108 189.018 75.6116C187.89 75.0566 186.804 74.4295 185.635 73.9464C185.677 73.2031 185.836 71.7584 185.951 71.057C185.267 71.2382 184.013 71.5704 183.371 71.6796C183.289 71.1523 183.126 70.0978 183.116 69.6124C182.651 69.2477 181.69 68.4047 181.266 67.968C181.329 67.5244 181.6 66.7207 181.663 66.2771C177.926 65.5595 174.606 63.4507 171.389 61.4974C171.237 59.5859 170.288 57.8857 169.411 56.2273C168.117 55.9603 166.792 55.5794 165.426 55.2706C165.293 54.3299 165.119 53.4612 164.914 52.4787C163.05 52.3627 161.291 51.731 159.573 51.0273C159.75 50.5534 159.99 49.636 160.095 49.1203L159.156 47.2343C158.679 47.7268 157.766 48.6396 157.288 49.132C157.548 48.5142 158.038 47.1647 158.226 46.5051C157.614 46.7281 156.277 47.2043 155.552 47.4575C155.057 46.3078 154.718 45.0558 154.151 43.8643C154.024 44.7516 153.131 45.9641 152.726 46.4983C152.737 46.3125 152.728 45.8271 152.78 45.5692C155.062 43.6227 152.342 42.148 150.187 42.5359C150.561 41.8879 151.309 40.5918 151.725 39.8718C150.822 40.5988 149.92 41.3258 149.09 42.0947L148.004 41.4676C148.379 40.1483 148.713 38.901 148.975 37.6119C147.052 41.1099 145.258 37.194 143.469 35.7772C143.532 35.3336 143.503 34.5485 143.452 34.1351C143.047 34.6693 142.195 35.8098 141.749 36.416C141.594 35.847 141.358 34.7507 141.235 34.2954C140.801 34.0446 139.859 33.5011 139.466 33.1783C139.499 32.6208 139.594 31.6198 139.626 31.0623C135.662 29.7339 132.488 27.0374 128.94 24.9889C129.231 24.4849 129.772 23.5488 130.063 23.0448C128.818 23.8624 127.563 24.8659 126.04 25.3305C124.322 24.6268 125.167 21.6584 123.158 21.4587C121.171 20.8874 119.267 20.1721 117.384 19.0852C118.35 17.9145 119.171 16.6602 119.877 15.4361C118.881 16.493 117.999 17.5197 117.075 18.6183C116.258 17.8588 115.514 17.1412 114.614 16.5257L114.127 16.5327C113.01 15.7918 111.696 15.2251 111.212 13.8896C106.432 11.8017 102.286 8.4479 97.4224 6.50402C97.641 5.95818 98.1922 4.8363 98.4108 4.29047C96.6086 4.40203 91.7583 6.11404 93.4641 2.49059C91.2878 3.2502 88.9264 3.32694 86.565 3.40369C86.8251 2.78584 87.3455 1.55015 87.6057 0.932311C87.4608 0.848701 87.0156 0.783684 86.8708 0.700073C86.5999 1.50373 86.2982 2.19358 85.9549 2.95543C85.5714 3.11804 84.6595 3.35963 84.162 3.55244C73.1439 28.4892 61.9286 53.6001 50.0308 78.221C50.3499 79.1733 50.7414 80.1674 51.0605 81.1197L49.5909 80.6552C49.1537 81.7469 48.6441 82.7968 48.1345 83.8466C60.8794 100.902 79.1344 112.593 94.619 126.91C120.981 149.81 145.703 174.548 168.298 201.13L168.653 199.511C168.962 200.649 169.311 201.715 169.62 202.853C169.028 203.376 167.773 204.38 167.11 204.86C166.986 204.405 166.853 203.464 166.803 203.051C163.637 201.511 161.333 198.645 158.095 197.064C158.284 195.733 157.945 194.481 157.149 193.35C156.828 193.74 156.215 194.634 155.965 195.066C154.197 193.949 153.092 192.351 152.267 190.435C151.904 190.897 151.105 191.78 150.741 192.242C147.444 189.09 144.188 185.866 140.445 183.321C140.839 182.973 141.555 182.234 141.908 181.957C140.551 182.134 139.152 182.383 137.722 182.517C138.138 181.797 139.011 180.285 139.427 179.565C138.732 179.932 137.457 180.636 136.762 181.003C136.63 180.062 136.292 178.139 136.159 177.199C135.515 177.979 134.986 178.729 134.228 179.54C132.151 177.285 129.835 175.276 127.914 172.918C127.333 173.255 126.141 173.815 125.53 174.038C121.591 170.324 117.29 167.072 112.947 163.893L113.301 162.945C110.42 163.586 108.146 161.505 105.715 160.198C105.675 159.598 105.625 158.514 105.585 157.915C91.9226 154.155 80.4379 143.78 66.8919 138.647C66.216 139.985 65.5402 141.323 64.8643 142.661C65.7024 143.049 67.3785 143.824 68.2166 144.212C68.0073 145.244 67.7565 146.347 67.4749 147.336C66.7508 146.918 65.2718 145.968 64.5477 145.55C64.7556 145.19 65.2129 144.398 65.4623 143.966C61.8967 145.46 58.2454 143.256 54.767 142.592L53.532 143.895C54.2976 144.241 55.7565 144.891 56.5222 145.237C55.5179 145.137 54.4719 145.109 53.4676 145.01C53.4381 144.224 53.4516 142.696 53.4221 141.911C51.4643 142.125 49.5065 142.339 47.5488 142.552C45.469 141.64 43.3169 140.685 41.3202 139.628C39.3933 139.956 37.3524 140.314 35.4147 140.827C33.925 140.063 32.4044 139.185 30.8422 138.379C29.6407 138.454 28.4392 138.528 27.1238 138.633C28.0329 139.733 28.9836 140.762 29.8927 141.863C31.8089 141.722 33.7667 141.508 35.6829 141.366C35.5367 141.954 35.3583 143.099 35.2121 143.686C33.2651 143.714 31.0606 143.018 29.4005 144.555C33.2301 145.614 43.1947 144.743 41.4834 151.051C39.0523 149.744 36.5073 148.466 33.9622 147.189C33.34 147.598 32.1063 148.23 31.4117 148.597C33.1068 145.159 29.4365 147.168 28.2565 146.871C28.4135 146.098 28.7997 144.592 28.9151 143.891C27.5071 143.654 26.13 143.531 24.6804 143.366C25.5185 143.754 27.1222 144.488 27.9603 144.876C27.617 145.638 26.8888 147.233 26.473 147.953C25.8214 147.577 24.4456 146.783 23.7215 146.365L23.3675 147.313C20.1077 146.103 16.5569 145.397 13.0557 145.775C13.3239 146.314 13.7462 147.422 14.0144 147.961C13.069 149.431 12.1544 151.015 11.1674 152.558C12.2442 152.699 13.2794 152.913 14.2421 153.085C14.0343 153.445 13.6186 154.165 13.4107 154.525C16.8046 156.004 19.2222 158.84 22.5744 160.392C22.3773 160.566 22.097 160.884 21.9415 160.986C20.6274 160.42 19.3857 159.895 17.9777 159.658C17.7699 160.018 17.3126 160.81 17.0631 161.242C17.086 160.199 17.1088 159.156 17.1317 158.113C15.7854 158.104 14.3975 158.167 13.0096 158.23C13.3945 157.396 13.7794 156.562 14.1643 155.728C10.7355 156.149 7.1525 156 3.77465 156.834C3.25705 156.727 2.30499 156.37 1.7874 156.263C3.95966 157.517 6.01796 158.801 8.15938 159.942C7.57874 160.278 6.30349 160.982 5.72284 161.319C8.54269 164.963 11.321 168.679 14.0268 172.354C10.1382 169.725 8.19001 165.24 4.82036 162.046C4.51862 162.736 3.91515 164.116 3.61341 164.805C3.0154 163.5 2.44823 162.309 1.80866 161.075C1.25886 161.526 0.636648 161.935 0.0868407 162.385C1.19834 165.811 2.42382 169.207 3.69087 172.531C3.04992 171.969 1.72646 170.917 0.971532 170.385C0.563813 172.261 0.995536 173.855 2.29752 175.278C2.79502 175.086 3.79 174.7 4.35991 174.549C4.48326 175.004 4.74069 175.729 4.79163 176.142L2.909 175.055C2.14587 178.551 3.64087 181.814 6.03836 184.351C5.7581 184.669 5.08358 185.336 4.80331 185.654C15.5678 198.781 30.0267 208.185 43.3137 218.448C44.1008 218.423 44.8155 218.356 45.4887 218.36C44.9763 220.753 48.031 220.98 49.4684 222.002C50.989 222.88 52.6396 226.041 54.3936 224.173C54.2581 224.575 54.0288 225.307 53.9349 225.637C70.0967 237.944 86.5804 249.861 102.504 262.414C102.959 262.294 103.757 262.082 104.099 261.992C103.776 263.053 103.94 264.108 104.559 265.041C105.201 264.932 106.558 264.755 107.201 264.646C109.884 269.364 114.486 272.597 118.507 276.166C118.642 275.764 118.913 274.961 119.09 274.487C119.502 275.781 119.986 277.116 120.398 278.41C120.792 278.062 121.58 277.365 121.975 277.016C121.316 279.996 124.793 281.332 126.208 283.397L126.335 281.838C126.918 285.343 130.301 287.008 132.679 289.245C145.042 300.607 157.436 312.083 169.726 323.403C169.996 323.27 170.649 322.975 170.96 322.771C170.903 325.043 173.147 327.01 175.354 326.364C175.188 326.652 174.855 327.228 174.689 327.516C175.857 328.67 177.139 329.795 178.265 331.021C178.587 330.631 179.261 329.964 179.542 329.646C180.069 330.238 180.523 330.789 180.936 331.411C180.439 331.604 179.454 331.804 178.957 331.996C193.382 342.629 206.622 355.649 217.042 370.21C225.219 377.619 232.19 387.116 241.788 393.234C242.255 392.927 243.074 392.344 243.541 392.037C243.291 392.469 242.865 393.375 242.615 393.807C244.519 394.523 246.34 395.382 248.244 396.097L247.331 397.01C251.646 398.733 255.162 401.339 259.406 402.349C259.511 401.834 259.792 400.844 259.969 400.371C255.925 397.844 251.736 395.233 249.674 390.778C249.757 390.634 249.893 390.232 249.976 390.088C252.666 391.449 255.419 392.367 258.286 393.254C257.746 393.519 256.554 394.078 256.015 394.343C256.863 395.217 258.485 396.921 259.26 397.753C259.52 397.135 260.113 395.941 260.373 395.323C261.025 395.7 262.328 396.452 262.908 396.787C263.085 396.313 263.511 395.407 263.761 394.975C264.485 395.393 265.933 396.229 266.657 396.647C265.945 395.372 265.202 393.983 264.376 392.738C267.014 394.357 269.62 395.862 272.258 397.481C271.917 396.9 271.309 395.78 271.082 395.17C273.012 393.499 275.515 394.849 275.645 397.132C276.009 396.67 276.549 395.734 276.912 395.272C279.559 397.376 281.77 399.9 283.546 402.846C286.048 399.682 281.793 398.858 279.632 397.418L280.702 395.731C278.145 395.311 275.64 394.633 273.281 393.367C271.767 394.317 270.61 392.977 269.659 391.948C270.842 390.903 272.159 390.127 273.507 389.465C273.619 390.106 273.958 391.358 274.143 392.041C276.26 390.382 278.542 388.436 277.74 385.477C276.395 384.796 276.067 383.359 275.997 381.974C275.541 382.095 274.66 382.45 274.204 382.571C274.808 381.192 275.38 379.698 275.911 378.277C274.99 378.033 273.997 377.747 273.075 377.503C273.719 376.723 274.321 376.014 274.923 375.306C274.624 374.653 273.995 373.234 273.696 372.581C273.364 373.157 272.626 374.268 272.294 374.844C272.149 374.76 271.859 374.593 271.714 374.509C273.993 369.392 269.971 371.007 272.761 364.169C275.154 368.719 277.548 373.269 279.516 378.053C275.235 359.549 261.885 344.545 252.214 328.688C246.443 319.788 239.915 311.027 234.383 301.881C227.818 291.178 217.936 282.208 211.983 271.283C221.601 282.884 231.561 294.395 239.498 307.234C240.047 307.455 240.481 307.706 240.988 307.998C241.523 309.747 242.369 311.292 243.215 312.836C243.547 312.932 244.209 313.122 244.468 313.175C244.929 315.554 245.763 317.955 248.299 318.747C250.523 324.928 255.806 329.322 258.3 335.37L259.359 333.87C259.44 335.068 259.448 336.225 259.487 337.496C260.004 337.602 260.925 337.846 261.371 337.911C265.173 347.211 272.956 354.969 276.623 364.67C277.486 362.673 278.164 360.664 279.172 358.75C278.177 359.135 277.11 359.479 276.084 359.751C276.74 358.113 277.468 356.518 277.678 354.815C277.263 355.535 276.317 357.005 275.829 357.684C273.867 354.727 272.765 351.786 274.015 348.284C273.589 349.19 272.736 351.001 272.309 351.907C271.99 350.955 271.383 349.164 271.064 348.212C270.568 347.734 269.461 346.807 268.851 346.359C269.287 345.938 270.117 345.169 270.481 344.707C270.035 344.642 269.031 344.542 268.513 344.435C264.123 338.829 261.215 332.829 258.276 326.716C258.402 325.829 258.487 325.014 258.54 324.084C254.912 320.837 254.623 315.486 251.461 311.932C251.71 311.5 252.251 310.564 252.5 310.132C254.025 314.181 255.093 313.166 256.778 309.914C256.787 310.399 256.796 310.885 256.764 311.442C255.768 312.499 254.699 313.514 253.661 314.643C254.934 315.282 256.279 315.962 257.551 316.601C257.177 317.249 256.315 318.575 255.941 319.223C258.818 319.925 259.742 324.01 263.214 322.846C263.128 324.333 262.886 325.922 262.241 327.373C262.625 327.211 263.506 326.855 263.931 326.621C265.19 328.788 266.407 331.027 266.899 333.519C267.129 332.787 267.587 331.324 267.817 330.592L269.978 332.032C269.573 332.566 268.805 333.563 268.4 334.097C268.959 334.132 270.005 334.16 270.492 334.153C270.427 335.268 270.249 336.413 270.185 337.528C270.911 336.603 271.566 335.637 272.251 334.784C269.824 331.463 267.978 327.805 265.354 324.658C265.706 324.381 266.422 323.643 266.703 323.325C266.113 323.176 264.891 322.951 264.229 322.76C265.673 320.426 266.931 318.08 268.044 315.65C266.529 317.272 265.303 319.06 264.222 320.932C263.686 319.855 262.644 317.813 262.066 316.807L263.753 317.397C265.03 316.022 266.234 314.605 267.221 313.063C266.392 313.161 264.662 313.314 263.792 313.484C264.249 312.691 265.175 310.922 265.632 310.13C264.825 309.855 263.283 309.349 262.475 309.075C262.933 308.283 263.806 306.771 264.263 305.979C265.857 306.227 267.462 306.29 269.037 306.239C268.807 306.971 268.452 308.589 268.223 309.321L270.542 309.316C271.615 306.288 272.057 303.182 272.985 300.07C272.735 300.502 272.164 301.324 271.842 301.714C271.471 301.02 270.8 299.673 270.47 298.906C270.17 298.925 269.539 298.848 269.28 298.795C269.512 296.721 270.252 294.268 268.163 292.87C268.207 291.455 268.282 290.154 268.285 288.812C267.882 288.675 267.033 288.473 266.629 288.336C268.228 286.57 268.617 283.723 265.781 282.95C266.144 282.487 266.684 281.551 267.006 281.161C266.271 280.929 264.802 280.464 264.108 280.16C264.513 279.626 265.251 278.516 265.656 277.981C265.138 277.874 264.103 277.661 263.513 277.512C263.515 276.841 263.6 275.354 263.602 274.683C264.193 274.161 265.334 273.187 265.884 272.737C265.954 274.121 266.449 275.271 268.095 275.261C267.857 275.508 267.41 276.114 267.13 276.432C269.362 278.585 272.403 280.341 273.464 283.353C273.192 284.828 272.197 285.214 270.582 284.666L270.602 284.965C271.337 285.198 272.848 285.59 273.625 285.75C273.707 286.278 273.943 287.374 274.097 287.943C274.264 286.984 274.577 286.108 274.92 285.346C275.293 285.369 276.008 285.302 276.422 285.253C279.841 289.531 285.263 292.181 288.309 296.436C290.586 297.175 292.073 299.282 294.288 299.792C294.496 299.432 294.839 298.671 295.089 298.239C296.101 299.495 297.227 300.721 298.281 301.906C297.847 301.655 296.947 301.04 296.554 300.717C295.86 301.084 294.44 301.704 293.714 301.957C298.989 305.195 301.876 311.566 308.024 313.291C307.972 313.549 307.898 314.179 307.804 314.508C309.862 315.793 311.899 317.449 314.438 316.898C314.509 317.611 314.765 319.007 314.877 319.648C320.284 319.313 325.457 321.724 330.966 322.216C331.623 319.908 329.282 320.284 327.852 320.419C326.695 319.079 324.874 318.219 324.308 316.357C325.394 316.984 326.439 317.683 327.442 318.454C328.263 317.199 328.969 315.975 329.676 314.751C331.021 315.432 332.324 316.184 333.555 316.895C334.064 316.516 335.111 315.873 335.619 315.494C332.278 313.757 329.31 311.372 326.976 308.392L326.517 309.855C326.23 308.346 325.985 306.764 325.584 305.284C325.293 305.788 324.742 306.91 324.523 307.456C324.35 305.916 323.494 304.557 322.595 303.271C323.526 304 324.581 304.513 325.658 304.655C326.474 305.414 327.249 306.246 327.994 306.963L326.098 307.405C330.213 310.645 334.733 313.351 338.931 316.447C337.943 313.476 343.445 312.14 340.873 308.735C341.557 308.554 342.241 308.373 342.997 308.233C343.731 309.137 344.423 310.112 345.156 311.016C347.787 310.807 350.13 309.759 352.059 308.089C351.885 307.22 351.495 305.555 351.321 304.686C352.304 305.158 353.245 305.701 354.186 306.245C354.291 305.729 354.542 304.626 354.646 304.11C353.995 303.734 352.805 302.951 352.226 302.617C352.933 301.393 353.525 300.199 354.16 298.933C353.625 297.184 353.162 295.477 352.627 293.728C352.037 293.579 351.375 293.389 350.785 293.24C351.919 290.439 350.91 287.84 349.05 285.71C348.614 286.131 347.784 286.899 347.348 287.32C347.651 285.959 348.068 284.567 348.444 283.248L346.84 282.514C346.58 283.132 346.029 284.254 345.769 284.872C346.611 283.246 346.635 281.532 345.861 280.029C345.373 280.707 344.355 282.136 343.753 282.844C344.243 281.495 344.732 280.145 345.222 278.796C343.439 274.694 338.37 271.767 339.364 266.869C344.722 275.147 351.229 283.608 354.047 293.108C355.865 295.309 355.963 298.15 354.622 300.64C355.087 301.005 356.06 301.662 356.525 302.027C357.086 280.653 339.059 263.717 328.656 246.286C334.455 251.458 338.242 258.445 342.9 264.59L343.961 262.418C343.751 263.45 343.573 264.595 343.322 265.698C349.831 273.488 352.524 283.204 358.059 291.008ZM87.6669 11.5284C86.1986 10.3926 84.8443 9.22671 83.5732 7.91677C85.9869 7.58221 88.3576 7.99091 90.7069 8.77123C89.6797 9.71428 88.6525 10.6573 87.6669 11.5284ZM98.6127 16.9839C95.6024 15.3419 92.5505 13.7719 89.3739 12.4179C89.6649 11.9139 90.2885 10.8338 90.5795 10.3298C91.2204 10.8918 91.8614 11.4539 92.5023 12.0159C92.6378 11.6141 92.9087 10.8105 93.0441 10.4086C93.6234 10.7431 94.6679 11.4422 95.1748 11.7348C95.1426 12.2922 94.9642 13.4373 94.932 13.9948C95.1613 13.2631 95.62 11.7998 95.8493 11.0682L97.8875 12.0529C97.6166 12.8565 97.1271 14.206 96.8978 14.9377C97.4167 14.3733 98.3407 13.2746 98.8597 12.7102L100.639 13.6415C100.182 14.4335 99.184 16.1617 98.6127 16.9839ZM104.709 39.0329C105.012 37.6718 105.696 37.4906 106.761 38.4893C106.458 39.8504 105.774 40.0316 104.709 39.0329ZM112.13 25.8444C112.298 24.8851 112.424 23.9978 112.664 23.0804C112.29 23.7284 111.469 24.9827 111.095 25.6307C110.599 25.1523 109.648 24.1234 109.266 23.6147C109.371 23.0991 109.694 22.0376 109.913 21.4918C109.663 21.9238 109.123 22.8599 108.873 23.2919C105.812 21.2364 102.668 19.325 99.4401 17.5576C99.8974 16.7655 100.854 15.1094 101.352 14.2454C104.032 15.7921 106.783 17.3807 109.337 19.1436C108.684 19.4386 107.451 20.0704 106.798 20.3654C107.482 20.1842 108.777 19.78 109.461 19.5988C112.285 21.2292 114.953 22.9618 117.736 24.6642L117.268 25.6421C116.098 25.159 114.815 24.7062 113.604 24.2951C114.473 24.7968 116.252 25.7281 117.121 26.2297L116.547 28.3945C115.461 27.7674 113.216 26.4715 112.13 25.8444ZM7.83259 183.082C9.39338 184.56 10.8402 186.067 12.287 187.574C11.9544 188.15 11.3308 189.23 10.9983 189.806C10.2783 187.375 8.97765 185.28 7.83259 183.082ZM56.6049 155.461C54.5252 154.549 52.373 153.594 50.3764 152.537C52.8518 152.431 55.2319 153.325 56.6049 155.461ZM53.3317 155.78C52.4801 156.92 51.7762 156.802 51.1782 155.497C51.9573 154.314 52.7753 154.403 53.3317 155.78ZM36.3948 142.641C40.061 142.646 43.3086 144.713 46.5268 145.995C48.2969 146.441 50.0146 147.144 51.2442 148.526C46.1097 147.386 41.029 145.317 36.3948 142.641ZM47.6785 150.02C48.1747 150.498 48.6708 150.977 49.1669 151.455C47.0858 151.214 44.7552 151.404 42.9665 149.987C44.6132 149.978 46.1458 149.999 47.6785 150.02ZM21.6785 198.565C24.3884 200.225 26.9013 202.06 29.3725 203.967C26.2777 203.14 23.7032 201.078 21.6785 198.565ZM103.264 163.775C105.871 165.28 107.917 167.421 110.077 169.532C110.522 169.597 111.412 169.727 111.858 169.792C111.721 170.866 111.77 171.95 112.12 173.016C112.35 172.285 112.808 170.821 113.11 170.132C114.568 171.453 114.471 173.125 113.556 174.71C111.386 172.784 108.623 171.381 107.127 168.789C104.63 169.268 102.532 167.384 100.421 166.358C101.334 165.445 102.32 164.574 103.264 163.775ZM102.33 169.572C101.52 170.641 100.702 170.552 100.146 169.175C100.997 168.035 101.774 168.195 102.33 169.572ZM71.7954 146.375C74.4022 147.88 77.0089 149.385 79.5016 150.92C80.1761 150.253 80.8091 149.658 81.442 149.064C81.7303 149.902 82.091 150.783 82.3377 151.693C83.0309 151.997 84.345 152.564 85.0383 152.868C85.7436 152.315 86.3766 151.721 87.0819 151.168C87.9789 153.126 88.9068 155.198 90.7787 156.47C90.9973 155.925 91.5069 154.875 91.8394 154.299C91.7965 155.042 91.8246 156.498 91.7816 157.242C93.6026 158.101 95.4236 158.96 97.1721 159.778C96.9629 160.809 96.6813 161.798 96.472 162.83C96.7738 162.14 97.4497 160.802 97.7514 160.112C98.4339 160.602 99.7681 161.468 100.378 161.917C99.9316 162.523 99.0385 163.735 98.5196 164.3C99.8364 163.524 101.019 162.479 102.634 163.027C101.305 164.66 99.8725 166.137 98.4712 167.728C97.4883 167.257 96.5054 166.785 95.4501 166.272C95.6164 165.984 95.8765 165.366 95.9704 165.036C96.2802 165.503 96.8996 166.437 97.2402 167.017C97.8209 166.681 99.013 166.121 99.552 165.856C95.5172 163.815 92.1892 160.549 87.9049 158.94L87.4383 159.246C86.7395 161.627 90.6122 161.943 91.8833 163.253C91.7586 163.469 91.3952 163.931 91.2705 164.147C89.7405 162.784 88.1382 161.378 86.5666 160.087L85.4147 161.246C85.573 159.801 85.9901 158.41 85.6201 157.044C79.4116 154.42 73.7852 150.788 68.2004 147.083C69.5266 146.793 70.6972 146.605 71.7954 146.375ZM79.543 156.032C78.1122 156.838 77.3465 156.492 77.2567 154.808C78.6151 153.96 79.4532 154.348 79.543 156.032ZM75.8702 154.199C74.5641 154.79 73.9124 154.413 73.9152 153.071C75.1904 152.367 75.8421 152.743 75.8702 154.199ZM113.054 192.469C112.601 191.247 110.604 190.19 111.249 188.739C112.637 188.676 113.465 189.25 113.907 190.657C113.73 191.131 113.49 192.048 113.355 192.45L113.054 192.469ZM68.8623 157.642C70.0236 156.968 71.2868 157.122 72.3206 158.006C89.1316 166.848 104.426 177.983 120.084 188.655C121.128 189.354 121.976 190.227 122.667 191.203C104.847 179.762 88.0132 166.779 68.8623 157.642ZM134.913 189.056C134.987 188.426 135.062 187.126 135.063 186.454C134.597 186.761 133.694 187.488 133.227 187.795C132.774 186.573 132.301 185.052 130.685 185.175C127.786 184.845 125.73 182.218 122.915 181.745C122.271 182.525 122.031 183.442 122.194 184.497C121.978 183.7 121.462 182.922 121.246 182.126C121.423 181.652 121.808 180.818 122.016 180.458C119.753 178.191 117.001 176.602 114.219 174.9C114.698 173.736 115.207 172.686 115.758 171.565C116.419 172.426 116.811 173.42 116.974 174.475C117.782 174.749 119.355 175.369 120.234 175.685C120.614 177.536 122.577 179.821 124.537 178.265C125.033 178.744 125.953 179.659 126.449 180.137C126.813 179.675 127.498 178.822 127.861 178.36C127.486 179.679 127.038 180.957 126.548 182.306C130.63 181.591 133.139 185.44 136.419 186.949C136.304 187.651 135.959 189.084 135.802 189.857L134.913 189.056ZM140.134 193.223C139.194 192.008 137.808 191.399 136.421 190.791C136.826 190.257 137.564 189.146 137.938 188.498C139.345 189.406 140.71 190.387 142.075 191.367L141.088 192.909C142.248 192.907 143.366 192.976 144.454 192.932C144.121 193.508 143.528 194.702 143.196 195.278C142.203 194.321 141.097 193.394 140.063 192.509L140.134 193.223ZM138.147 203.02C138.998 201.879 139.702 201.998 140.331 203.417C139.48 204.557 138.776 204.439 138.147 203.02ZM144.271 196.091C144.171 194.593 146.655 194.971 147.047 195.965C147.22 197.505 144.652 197.271 144.271 196.091ZM147.031 198.836C147.301 198.033 147.916 196.467 148.187 195.663C148.443 197.059 147.547 199.614 149.867 199.61C150.127 198.992 150.616 197.642 150.876 197.024C150.946 198.409 150.529 199.8 150.226 201.161C149.151 200.348 148.075 199.535 147.031 198.836ZM158.334 206.514C157.744 206.366 156.678 206.038 156.088 205.89C156.193 205.374 156.516 204.313 156.693 203.839C154.581 203.484 152.636 202.84 150.701 202.011C151.728 201.068 152.672 200.269 153.875 199.523C153.645 200.255 153.083 201.563 152.896 202.222C153.589 202.527 154.945 203.021 155.638 203.326C155.525 202.685 155.3 201.402 155.187 200.761C155.565 203.284 158.879 203.565 158.915 206.178C159.433 206.285 160.509 206.426 160.996 206.419L160.611 207.253L159.266 206.573C159.337 207.286 159.479 208.712 159.478 209.383C159.179 208.73 158.592 207.239 158.334 206.514ZM233.181 124.535C232.466 124.602 231.037 124.737 230.322 124.804C230.54 124.258 230.967 123.353 231.186 122.807C231.785 123.441 232.509 123.859 233.181 124.535ZM228.508 120.589C229.263 121.121 229.934 121.796 230.648 122.4C229.996 122.024 229.158 121.636 228.651 121.344C228.547 121.859 228.307 122.777 228.202 123.292C226.65 122.301 225.068 121.195 223.558 120.131C224.584 119.86 225.568 119.66 226.584 119.574C226.035 119.353 224.969 119.026 224.379 118.877L225.347 116.364C226.505 117.704 227.662 119.044 228.508 120.589ZM206.765 102.563C207.562 103.023 208.968 103.931 209.692 104.349L210.429 103.91C208.659 103.464 207.749 102.363 207.629 100.566C210.257 101.699 212.003 103.859 211.686 106.749C211.905 106.203 212.3 105.183 212.477 104.709C214.648 106.635 216.778 108.632 218.907 110.629C218.471 111.05 217.569 111.777 217.174 112.125C219.744 111.689 221.76 113.045 223.414 114.864C223.05 115.326 222.437 116.22 222.074 116.682C222.736 116.873 223.989 117.212 224.693 117.33C224.36 117.906 223.695 119.058 223.435 119.676C220.285 115.265 206.529 106.651 206.765 102.563C206.474 103.067 206.183 103.571 206.089 103.901C205.212 102.243 201.073 100.717 202.682 98.7659C203.748 99.0933 204.523 99.9248 205.34 100.684C205.475 100.282 205.777 99.5926 205.912 99.1908C208.657 98.9514 207.607 100.937 206.765 102.563ZM177.016 74.8271C178.369 76.6642 179.795 78.5432 181.106 80.4524C181.408 79.7626 181.866 78.2993 182.065 77.4538C184.194 79.4512 186.323 81.4486 188.183 83.5785C187.148 83.3648 185.119 82.8655 184.126 82.5799C185.582 84.5727 188.016 84.5377 190.252 84.677C193.769 86.6116 196.522 92.7132 200.989 91.1638C200.718 91.9675 200.333 92.8013 200.062 93.605C201.509 95.1123 204.334 96.0715 204.889 98.1201C204.299 97.9714 203.005 97.7044 202.415 97.5558C201.876 97.8206 200.912 98.32 200.373 98.5848C194.842 93.9513 189.435 89.1017 184.465 83.8318L183.864 83.869C182.795 84.884 183.051 86.2799 183.163 87.5922C182.688 86.7422 182.213 85.8921 181.625 85.0722C182.174 84.6216 182.693 84.0572 182.954 83.4393C181.489 80.2898 178.157 79.038 175.863 76.6574L177.016 74.8271ZM162.009 60.0183C164.345 62.3269 166.836 64.5334 169.286 66.8118C168.551 66.5796 167.154 66.1569 166.419 65.9247C166.387 66.4821 166.353 67.7108 166.28 68.3402C168.647 65.5785 171.83 68.7604 174.042 70.6138C174.272 69.8822 174.689 68.4909 174.949 67.873C174.74 68.9043 174.603 69.9774 174.352 71.0807C174.921 71.6009 176.099 72.5694 176.668 73.0897C176.272 74.1094 175.876 75.129 175.408 76.1069C173.507 74.0491 171.004 72.6997 169.144 70.5699C169.652 70.1913 170.441 69.4944 170.949 69.1158C169.219 69.2692 167.603 69.3924 165.822 69.1323C165.947 68.9163 166.072 68.7003 166.269 68.5261C163.942 66.7029 161.616 64.8796 159.29 63.0564C160.172 62.0298 161.054 61.0031 162.009 60.0183ZM158.972 61.4329C157.542 61.5677 157.015 60.9754 157.463 59.6979C158.934 59.4911 159.461 60.0834 158.972 61.4329ZM140.498 45.1029C140.355 44.348 140.068 42.8383 140.039 42.0532C142.157 44.2365 144.587 46.2153 147.11 47.8643C144.573 47.7436 142.744 45.7276 140.603 44.5872C141.119 45.3653 142.11 46.9935 142.626 47.7716C142.502 47.9876 142.221 48.3058 142.097 48.5218C140.961 46.81 139.514 45.3027 137.984 43.9393L138.037 43.6815C138.616 44.0159 139.847 44.7266 140.498 45.1029ZM137.106 42.9522C136.502 44.3319 134.674 42.3159 134.841 41.3566C135.6 39.8747 137.471 41.8187 137.106 42.9522ZM136.977 39.9978C136.326 39.6215 134.867 38.9712 134.174 38.667C133.571 39.3754 132.897 40.0421 132.222 40.7087C132.566 39.9469 133.18 38.3813 133.482 37.6915C132.582 37.076 130.741 35.9171 129.8 35.3736L128.885 36.9577C129.62 37.19 131.048 37.7264 131.741 38.0307C131.43 38.2351 130.953 38.7275 130.641 38.9319C128.843 37.0297 126.454 35.6501 124.542 33.7781C129.338 32.9952 133.441 37.0922 136.977 39.9978ZM86.2346 114.676C86.4009 114.388 86.7643 113.926 86.889 113.71C89.7116 116.012 92.7313 118.139 94.5682 121.312C92.0568 118.806 89.3066 116.546 86.2346 114.676ZM154.966 70.5449C154.593 70.5217 153.92 70.5171 153.547 70.4939C144.68 61.4381 133.789 54.3823 124.331 45.8491C130.735 48.9705 135.467 54.4867 141.341 58.3584C149.818 65.7488 158.503 72.7792 166.783 80.3438C162.491 77.5777 158.21 74.6257 154.966 70.5449ZM166.938 80.9129C186.532 95.97 204.143 113.626 222.45 130.244C222.108 130.335 221.466 130.444 221.124 130.535C203.875 113.087 184.425 98.1139 166.938 80.9129ZM219.55 135.77C218.288 134.946 216.985 134.193 215.723 133.369C215.827 132.853 216.006 131.708 216.11 131.192C217.257 132.718 218.403 134.244 219.55 135.77ZM161.792 222.432L162.197 221.897C166.311 225.809 171.327 228.993 174.341 233.805C170.02 230.254 166.186 226.025 161.792 222.432ZM239.756 135.052C237.199 134.631 239.342 129.916 241.265 131.602C241.304 132.873 240.731 134.366 239.756 135.052ZM241.741 136.965C241.993 135.191 245.223 135.616 246.06 136.675C245.384 138.013 242.65 138.066 241.741 136.965ZM270.94 383.375C270.669 384.179 270.138 385.6 269.795 386.362C270.933 386.731 272.072 387.101 273.21 387.47C271.758 388.647 269.862 389.089 268.08 389.5C268.437 387.21 268.629 384.536 270.94 383.375ZM265.862 390.332C264.42 391.323 262.906 392.274 261.392 393.224C261.072 392.943 260.473 392.308 260.152 392.027C260.981 391.93 262.524 391.765 263.281 391.625C262.381 391.01 261.44 390.467 260.498 389.923C260.623 389.707 260.831 389.347 260.955 389.131C262.581 389.493 264.278 389.897 265.862 390.332ZM214.686 362.417C215.548 361.091 217.233 363.024 216.723 364.073C215.892 365.514 214.177 363.467 214.686 362.417ZM240.563 384.654C241.878 384.549 242.952 386.033 243.147 387.202C242.139 388.444 239.411 385.813 240.563 384.654ZM242.593 384.482C243.868 383.778 244.52 384.154 244.32 385.671C243.159 386.345 242.507 385.968 242.593 384.482ZM246.405 378.714C246.365 378.115 246.399 376.886 246.359 376.287C245.799 376.252 244.609 376.141 243.977 376.064C244.268 375.56 244.892 374.48 245.183 373.976C245.916 374.88 246.691 375.711 247.352 376.573C247.434 377.1 247.567 378.041 247.618 378.454C249.842 379.451 251.423 381.227 252.693 383.209C249.98 382.89 248.442 380.37 246.405 378.714ZM252.11 384.888C252.473 384.426 253.169 383.387 253.532 382.925C253.759 383.536 254.098 384.788 254.283 385.471C256.249 386.414 258.266 387.77 258.426 390.167C256.473 388.367 254.208 386.771 252.11 384.888ZM250.666 330.867C254.627 333.538 255.279 339.098 259.292 341.512C259.497 342.494 259.63 343.435 259.835 344.417C260.342 344.71 261.397 345.223 261.946 345.444C263.922 351.385 269.059 356.367 271.366 362.404C272.502 364.115 271.38 366.059 271.086 367.906C268.53 366.814 269.86 364.51 269.781 362.64C268.776 363.212 267.904 364.053 267.177 364.977C267.645 363.999 268.113 363.021 268.509 362.002C267.991 361.895 266.998 361.609 266.48 361.503C266.741 360.213 266.931 358.883 267.078 357.624C266.436 357.733 265.151 357.951 264.509 358.06C264.729 356.843 265.021 355.668 265.2 354.523C264.588 354.746 263.293 355.15 262.681 355.373C262.829 354.114 262.946 352.742 263.093 351.483C261.638 348.819 260.091 345.813 257.048 344.729C257.112 344.285 257.196 343.47 257.259 343.026C256.05 341.944 254.923 340.717 253.828 339.605L254.462 338.339C253.727 338.107 252.33 337.684 251.637 337.38C251.897 336.762 252.448 335.64 252.708 335.022C251.311 334.6 249.872 334.249 248.475 333.826C249.129 332.86 249.898 331.863 250.666 330.867ZM250.204 329.16C250.079 329.376 249.871 329.736 249.674 329.91C248.411 329.757 247.2 329.346 245.906 329.079C246.315 326.531 244.444 324.587 242.386 323.302C242.388 322.631 242.359 321.175 242.288 320.462C241.312 321.818 240.367 323.289 239.39 324.645C240.15 323.163 240.981 321.723 241.74 320.241C240.655 318.943 239.643 317.686 238.558 316.388C238.154 316.251 237.378 316.091 236.974 315.954C237.007 315.396 237.144 314.323 237.217 313.694C236.556 312.832 235.854 312.042 235.151 311.253C235.297 310.665 235.59 309.49 235.808 308.944C239.957 316.139 245.391 322.445 250.204 329.16ZM229.715 300.434C231.957 303.072 234.158 305.783 235.124 309.125C234.183 308.582 232.259 307.567 231.276 307.095C231.423 305.836 231.187 304.74 230.61 303.734C230.246 304.197 229.633 305.091 229.384 305.523L229.011 305.5C229.303 304.324 229.668 303.191 229.961 302.016C224.943 299.503 223.764 293.35 219.909 289.492C219.381 289.571 218.438 289.699 217.91 289.778C218.192 288.788 218.432 287.871 218.63 287.025C222.184 291.573 226.245 295.742 229.715 300.434ZM263.215 311.807C264.291 312.619 263.612 315.3 262.039 314.68C260.892 313.825 261.673 311.3 263.215 311.807ZM267.759 303.101C268.667 304.873 266.034 305.754 265.738 303.758C265.089 302.04 267.618 301.004 267.759 303.101ZM260.603 307.802C262.662 309.087 259.984 312.053 260.135 313.964C257.932 312.597 256.948 307.612 260.603 307.802ZM275.794 166.611C275.42 167.259 274.816 168.638 274.442 169.286C274.95 168.908 276.008 168.079 276.558 167.628C277.292 168.531 278.098 169.477 278.831 170.38C278.189 170.489 276.946 170.636 276.303 170.745C276.644 171.326 277.294 172.373 277.635 172.954C278.185 172.503 279.357 171.644 279.979 171.235C279.925 172.164 279.849 174.136 279.795 175.065C281.247 173.887 282.624 174.01 283.988 175.662L284.706 174.252C284.559 174.84 284.381 175.985 284.235 176.572C285.084 176.774 286.75 177.065 287.599 177.267C286.957 177.376 285.631 177.666 284.988 177.775C287.489 180.467 289.834 183.261 292.263 185.911C292.096 186.2 291.764 186.776 291.639 186.992C291.009 186.244 290.379 185.496 289.676 184.706C289.53 185.294 289.393 186.367 289.319 186.996C288.285 186.111 287.138 185.257 285.99 184.402C285.794 183.905 285.402 182.911 285.207 182.414C281.783 180.149 279.512 176.726 277.344 173.458C275.101 171.491 271.355 169.616 271.932 166.109C272.936 166.209 274.79 166.511 275.794 166.611ZM247.373 137.913C247.34 138.47 247.276 139.585 247.244 140.143C247.997 141.346 248.709 142.621 249.266 143.998C247.466 142.767 245.864 141.362 244.428 139.669C245.206 139.158 246.636 138.352 247.373 137.913ZM195.565 242.027C195.815 241.595 196.272 240.803 196.48 240.443C194.017 239.693 191.855 238.253 190.327 236.218C193.07 236.65 195.709 237.597 197.766 239.553C197.423 240.315 196.85 241.808 196.507 242.57L195.565 242.027ZM254.69 150.49C255.376 148.966 255.69 147.419 255.445 145.837C254.75 146.204 253.392 147.052 252.697 147.419C251.602 146.307 250.351 145.296 249.058 144.358C249.649 143.836 250.199 143.385 250.718 142.821C250.316 142.012 249.501 140.581 249.171 139.815C252.83 143.176 256.873 146.374 259.588 150.534C258.75 150.146 257.105 149.484 256.339 149.138C255.903 149.558 255.084 150.141 254.69 150.49ZM252.651 159.874C253.914 160.027 255.082 161.181 255.307 162.463C254.29 163.892 251.613 161.002 252.651 159.874ZM258.648 154.503C257.532 153.091 256.458 151.607 256.037 149.828C257.268 150.538 258.375 151.465 259.481 152.392C259.616 151.99 260.001 151.156 260.251 150.724C261.872 153.1 264.198 154.923 266.38 156.663C265.601 157.845 264.894 159.069 264.115 160.252C263.774 159.671 263.165 158.552 262.825 157.971L265.322 157.492C264.878 156.756 263.876 155.314 263.318 154.608C263.078 155.525 262.712 157.33 262.472 158.247C261.791 157.086 261.11 155.925 260.429 154.763C259.983 154.698 259.093 154.568 258.648 154.503ZM201.907 260.473C205.722 263.732 209.318 267.536 211.567 272.003C207.877 268.528 204.622 264.633 201.907 260.473ZM262.448 170.33C265.187 172.776 267.605 175.611 270.261 178.201C271.914 180.02 274.023 181.717 274.173 184.3C270.175 179.688 265.554 175.484 262.448 170.33ZM232.077 264.739C229.938 262.256 228.194 259.425 226.988 256.329C229.241 258.781 231.327 261.522 232.077 264.739ZM237.742 249.576C238.944 248.83 239.482 249.237 239.396 250.723C238.193 251.469 237.656 251.063 237.742 249.576ZM221.384 267.206C222.758 268.671 224.589 270.016 224.874 272.197C228.996 277.265 232.682 282.753 235.218 288.73C229.877 282.094 225.48 274.659 221.384 267.206ZM237.892 277.409C237.384 272.603 233.082 269.352 232.419 264.648C235.889 269.34 238.312 274.675 241.16 279.775C240.084 278.962 239.009 278.15 237.892 277.409ZM239.392 252.737C240.564 251.878 241.143 252.212 241.202 253.782C240.03 254.642 239.451 254.307 239.392 252.737ZM240.961 275.437C242.133 274.577 242.713 274.912 242.772 276.482C241.6 277.341 241.02 277.007 240.961 275.437ZM275.434 185.796C275.383 185.383 275.209 184.514 275.158 184.1C280.367 189.124 284.871 194.701 289.645 200.145L289.415 200.877C284.495 196.02 280.042 190.857 275.434 185.796ZM290.775 188.989C292.018 188.843 293.147 188.727 294.391 188.58C295.394 189.351 296.427 190.236 297.43 191.007C296.953 191.5 295.957 192.557 295.479 193.049C296.122 192.94 297.406 192.721 298.121 192.654C299.186 193.653 300.25 194.651 301.273 195.722C299.875 195.971 298.548 196.261 297.15 196.51C294.658 194.303 292.406 191.851 290.775 188.989ZM244.686 287.38C246.691 289.593 248.145 292.257 248.875 295.174C246.798 292.919 245.457 290.225 244.686 287.38ZM256.879 326.293C255.521 327.141 254.838 326.651 254.79 324.895C256.262 324.017 256.945 324.507 256.879 326.293ZM254.4 323.23C252.961 322.879 252.703 322.155 253.513 321.086C254.952 321.437 255.251 322.089 254.4 323.23ZM247.374 310.149C249.542 313.417 251.824 316.654 253.028 320.422C249.846 316.569 247.981 311.94 244.758 308.158C244.935 307.685 245.289 306.737 245.352 306.293C245.95 307.599 246.548 308.904 247.374 310.149ZM296.782 209.354C300.772 212.81 304.202 216.903 306.896 221.434C303.372 217.671 300.098 213.477 296.782 209.354ZM320.525 221.238C319.219 221.828 317.884 221.633 316.519 220.653C314.973 216.976 311.166 214.875 309.62 211.198C304.916 207.138 301.136 201.979 297.574 196.946C298.567 197.232 299.519 197.59 300.471 197.947C300.679 197.587 301.022 196.825 301.116 196.496C302.253 197.536 303.307 198.721 304.372 199.719C303.936 200.14 303.034 200.867 302.525 201.245C304.18 202.393 306.001 203.252 307.75 204.07L308.932 203.024C308.454 204.188 308.006 205.465 307.485 206.701C311.15 207.377 313.246 210.603 315.135 213.518C314.958 213.992 314.532 214.898 314.282 215.33C317.016 215.276 320.874 217.791 318.538 220.667C319.729 220.778 320.806 220.92 321.996 221.032C321.736 221.649 321.144 222.843 320.842 223.533C320.812 222.748 320.71 221.921 320.525 221.238ZM324.902 228.373C325.483 228.037 326.457 227.351 327.038 227.015C328.152 229.098 328.697 231.332 328.941 233.585C329.449 233.207 330.507 232.377 331.129 231.969C330.931 232.814 330.564 234.619 330.366 235.464C328.206 233.353 326.554 230.863 324.902 228.373ZM323.906 315.548C324.794 317.021 322.253 318.914 321.386 317.07C320.727 315.537 323.112 313.746 323.906 315.548ZM332.357 234.022C333.236 235.009 334.041 235.954 334.847 236.9C333.635 237.16 332.423 237.42 331.138 237.638C331.545 236.433 331.951 235.227 332.357 234.022ZM333.467 238.119C334.865 238.542 336.911 240.683 336.079 242.123C334.724 241.629 332.594 239.631 333.467 238.119ZM336.812 243.698C336.224 242.207 338.722 241.057 339.382 242.59C339.794 243.884 337.43 245.303 336.812 243.698ZM338.784 246.469C338.497 244.959 341.202 244.121 341.364 245.846C341.796 247.44 339.06 248.164 338.784 246.469Z" fill="#00DF9A"/>
</svg>
